<svg width="931" height="221" viewBox="0 0 931 221" fill="none" xmlns="http://www.w3.org/2000/svg">
<path d="M656.688 127.995L618.484 153.511L732.781 164.172L750.62 145.256L656.688 127.995Z" fill="white"/>
<path d="M618.422 153.557C619.662 152.703 620.875 151.813 622.078 150.912L625.698 148.208C626.906 147.302 628.136 146.417 629.396 145.578C630.656 144.745 631.953 143.948 633.318 143.281C633.38 143.25 633.459 143.276 633.49 143.339C633.516 143.396 633.495 143.464 633.448 143.5C632.229 144.391 631.016 145.271 629.807 146.172C628.599 147.063 627.396 147.969 626.172 148.849C625.563 149.297 624.948 149.734 624.328 150.167C623.714 150.604 623.084 151.031 622.453 151.448C621.193 152.287 619.896 153.078 618.552 153.776C618.49 153.807 618.412 153.781 618.38 153.719C618.349 153.662 618.37 153.594 618.422 153.557Z" fill="#C69157"/>
<path d="M731.745 164.078L618.969 153.552C620.167 152.912 621.323 152.198 622.453 151.448C623.083 151.032 623.714 150.604 624.328 150.167C624.948 149.735 625.563 149.297 626.172 148.849C627.396 147.969 628.599 147.063 629.807 146.172C630.917 145.344 632.031 144.532 633.156 143.714L656.688 127.995L743.568 143.959C744.781 145.599 745.932 147.438 746.781 149.323L740.031 156.485C738.849 156.844 737.818 157.266 737.047 157.75C737.135 157.756 737.224 157.766 737.312 157.771L738.807 157.193C737.031 158.209 735.276 159.302 733.865 160.782C732.958 161.729 732.198 162.854 731.745 164.078Z" fill="#F1F0F1"/>
<path d="M618.49 153.511H618.484L618.667 153.386C618.609 153.427 618.552 153.469 618.49 153.511Z" fill="#F1F0F1"/>
<path d="M618.969 153.552L618.49 153.511C618.552 153.469 618.61 153.427 618.667 153.386L633.156 143.714C632.031 144.532 630.917 145.344 629.807 146.172C628.599 147.063 627.396 147.969 626.172 148.849C625.563 149.297 624.948 149.735 624.328 150.167C623.714 150.604 623.083 151.032 622.453 151.448C621.323 152.198 620.167 152.912 618.969 153.552Z" fill="#C69157"/>
<path d="M738.808 157.193C737.032 158.208 735.276 159.302 733.865 160.781C732.453 162.255 731.396 164.167 731.297 166.208C731.172 168.802 734.724 170.885 736.74 172.51C738.761 174.13 739.188 175.391 741.724 175.922C745.615 176.729 749.651 176.833 753.578 176.224C756.526 175.766 759.532 174.838 761.693 172.781C763.86 170.724 764.948 167.307 763.615 164.63C762.802 163 762.88 161.745 761.354 160.76C757.969 158.562 756.912 156.203 752.959 155.411C749 154.62 740.474 155.609 737.047 157.75C737.136 157.755 737.224 157.766 737.313 157.771L738.808 157.193Z" fill="#C69157"/>
<path d="M749.724 148.182C743.573 136.979 700.896 130.401 688.385 127.927C673.969 125.073 657.703 129.245 643.734 124.672C637.281 130.641 631.838 136.484 625.385 142.453C628.568 147.385 634.729 149.625 640.583 149.911C646.437 150.193 652.234 148.854 658.057 148.219C677.932 146.047 718.885 149.068 734.073 162.104L749.724 148.182Z" fill="white"/>
<path d="M733.99 162.203C732.156 160.703 730.125 159.479 728.037 158.396C725.938 157.312 723.766 156.38 721.542 155.594C719.323 154.792 717.068 154.089 714.792 153.474C713.656 153.151 712.505 152.88 711.36 152.599C710.787 152.453 710.208 152.339 709.63 152.208C709.057 152.078 708.479 151.948 707.901 151.833C703.276 150.875 698.604 150.156 693.906 149.62C691.563 149.333 689.208 149.125 686.854 148.932C684.495 148.755 682.136 148.604 679.776 148.505C678.599 148.443 677.417 148.422 676.235 148.38C675.057 148.359 673.875 148.328 672.693 148.328C670.333 148.307 667.974 148.354 665.615 148.448C663.261 148.526 660.906 148.672 658.568 148.906C656.229 149.141 653.891 149.484 651.537 149.802C649.182 150.12 646.802 150.417 644.401 150.5C643.198 150.547 641.995 150.557 640.792 150.484C639.583 150.417 638.38 150.26 637.193 150.036C636.005 149.792 634.833 149.474 633.698 149.062C632.557 148.656 631.464 148.125 630.422 147.516C628.328 146.302 626.526 144.573 625.276 142.521L625.224 142.448L625.297 142.359C626.693 140.729 628.156 139.193 629.641 137.667C631.125 136.146 632.656 134.667 634.172 133.172L636.474 130.958C637.25 130.224 638.026 129.5 638.813 128.771C640.386 127.339 641.985 125.922 643.646 124.583L643.708 124.531L643.771 124.552C647.297 125.703 650.979 126.297 654.672 126.589C658.37 126.88 662.083 126.875 665.797 126.818C669.511 126.76 673.224 126.656 676.943 126.724C680.656 126.797 684.386 127.047 688.047 127.74C691.688 128.448 695.37 128.938 699.047 129.474C702.719 130.016 706.396 130.599 710.026 131.406C713.651 132.224 717.255 133.24 720.63 134.849C722.313 135.656 723.927 136.62 725.37 137.812C726.813 139.005 728.078 140.432 728.99 142.078L728.771 142.198C727.875 140.589 726.636 139.182 725.208 138.01C723.787 136.833 722.188 135.88 720.521 135.078C717.177 133.484 713.583 132.464 709.969 131.651C706.349 130.844 702.682 130.266 699.011 129.724C695.333 129.188 691.651 128.698 688 127.99C684.354 127.297 680.641 127.052 676.938 126.979C673.229 126.906 669.516 127.016 665.802 127.068C662.089 127.125 658.365 127.13 654.651 126.839C650.948 126.547 647.245 125.953 643.693 124.797L643.818 124.766C642.354 126.318 640.875 127.849 639.401 129.38L637.177 131.672L634.943 133.953C633.443 135.464 631.948 136.984 630.38 138.432C628.813 139.88 627.203 141.281 625.469 142.547L625.49 142.385C626.86 144.302 628.688 145.839 630.761 146.906C632.813 148 635.078 148.661 637.365 149.042C639.667 149.396 642 149.432 644.339 149.271C645.505 149.193 646.672 149.068 647.839 148.922C649.005 148.776 650.172 148.609 651.344 148.432C653.682 148.078 656.031 147.688 658.417 147.443C660.792 147.188 663.177 147.031 665.557 146.932C667.943 146.849 670.323 146.813 672.703 146.839C673.896 146.839 675.083 146.88 676.276 146.901C677.464 146.948 678.656 146.974 679.844 147.042C684.599 147.266 689.344 147.693 694.068 148.292C698.792 148.88 703.49 149.703 708.136 150.745C708.719 150.865 709.297 151.016 709.875 151.156C710.453 151.302 711.031 151.432 711.61 151.589C712.761 151.901 713.912 152.203 715.052 152.557C716.198 152.88 717.328 153.26 718.458 153.635C719.026 153.823 719.583 154.042 720.141 154.245L720.985 154.552L721.813 154.885C724.031 155.755 726.198 156.766 728.287 157.927C730.37 159.083 732.37 160.422 734.151 162.01L733.99 162.203Z" fill="#C69157"/>
<path d="M750.266 150.011C745.172 138.292 709.219 127.334 696.99 123.714C682.901 119.542 666.318 122.193 652.828 116.354C645.854 121.703 639.901 127.016 632.922 132.365C635.641 137.568 641.573 140.375 647.375 141.193C653.177 142.016 659.073 141.219 664.932 141.12C684.922 140.797 722.818 143.99 736.74 158.375L750.266 150.011Z" fill="white"/>
<path d="M736.651 158.464C735.01 156.854 733.156 155.49 731.219 154.282C729.276 153.073 727.24 152.021 725.135 151.12C723.031 150.214 720.896 149.391 718.714 148.693C717.63 148.318 716.526 148.016 715.432 147.677L713.776 147.229C713.224 147.068 712.667 146.927 712.115 146.792C703.219 144.552 694.099 143.318 684.958 142.532C680.385 142.162 675.797 141.933 671.214 141.828C668.922 141.782 666.625 141.776 664.339 141.808C662.052 141.844 659.76 141.979 657.448 142.068C655.141 142.162 652.818 142.188 650.49 142.042C648.167 141.891 645.828 141.537 643.594 140.828C643.313 140.735 643.031 140.662 642.755 140.558L641.932 140.25C641.391 140.021 640.849 139.802 640.328 139.532C639.797 139.287 639.292 138.985 638.781 138.698L638.042 138.219C637.792 138.068 637.562 137.881 637.323 137.714C636.391 137.011 635.495 136.235 634.74 135.339C633.979 134.448 633.333 133.469 632.812 132.422L632.766 132.339L632.849 132.266C634.432 130.834 636.036 129.443 637.651 128.052C639.26 126.662 640.885 125.292 642.521 123.927C643.333 123.24 644.172 122.584 644.995 121.907C645.828 121.245 646.667 120.584 647.516 119.938C649.214 118.646 650.943 117.401 652.75 116.256L652.818 116.214L652.88 116.24C656.281 117.714 659.896 118.641 663.547 119.271C667.198 119.901 670.901 120.24 674.599 120.526C678.302 120.813 682.01 121.052 685.708 121.464C689.401 121.875 693.089 122.469 696.672 123.5C700.234 124.537 703.854 125.365 707.464 126.245C711.073 127.12 714.677 128.037 718.219 129.177C721.755 130.323 725.255 131.672 728.464 133.584C730.062 134.542 731.583 135.651 732.911 136.974C734.24 138.292 735.365 139.834 736.125 141.552L735.896 141.657C735.151 139.964 734.042 138.453 732.734 137.151C731.427 135.849 729.922 134.75 728.333 133.802C725.151 131.901 721.667 130.563 718.146 129.417C714.615 128.282 711.01 127.365 707.406 126.49C703.797 125.61 700.172 124.782 696.599 123.74C693.036 122.719 689.365 122.125 685.677 121.714C681.99 121.302 678.286 121.068 674.583 120.776C670.88 120.49 667.172 120.151 663.5 119.521C659.839 118.891 656.203 117.953 652.776 116.474L652.906 116.459C651.333 117.901 649.729 119.302 648.115 120.688C646.505 122.073 644.88 123.443 643.229 124.792C641.583 126.141 639.922 127.479 638.224 128.766C636.521 130.052 634.797 131.308 633 132.464L633.036 132.308C634.177 134.292 635.786 135.964 637.672 137.214C637.911 137.37 638.141 137.537 638.385 137.677L639.12 138.099C639.625 138.36 640.125 138.625 640.646 138.839C641.682 139.292 642.75 139.677 643.844 139.969C646.021 140.584 648.281 140.839 650.547 140.943C651.682 140.99 652.823 140.99 653.964 140.969C655.104 140.938 656.25 140.881 657.391 140.823C659.682 140.703 661.984 140.532 664.302 140.464C666.62 140.401 668.927 140.407 671.24 140.438C673.547 140.479 675.854 140.552 678.161 140.677C680.469 140.797 682.771 140.964 685.073 141.157C689.672 141.558 694.266 142.094 698.828 142.849L700.536 143.136L702.24 143.443C703.38 143.641 704.51 143.891 705.641 144.115C707.901 144.615 710.156 145.125 712.385 145.745C713.505 146.032 714.609 146.381 715.719 146.709C716.818 147.073 717.927 147.407 719.016 147.808C721.198 148.568 723.349 149.448 725.443 150.438C727.542 151.417 729.573 152.552 731.505 153.839C733.432 155.125 735.25 156.589 736.833 158.287L736.651 158.464Z" fill="#C69157"/>
<path d="M745.167 155.412C732.865 139.61 696.703 132.474 676.797 130.641C670.958 130.104 665.016 130.261 659.333 128.818C653.651 127.375 648.057 123.953 645.912 118.485C653.422 113.922 659.912 109.276 667.422 104.714C680.203 111.974 696.974 111.125 710.537 116.792C722.307 121.709 743.604 126.584 747.412 138.787L745.167 155.412Z" fill="white"/>
<path d="M745.068 155.49C743.625 153.729 741.948 152.193 740.177 150.782C738.401 149.375 736.515 148.115 734.547 146.99C732.588 145.86 730.568 144.828 728.505 143.896L727.734 143.542L726.953 143.203L725.39 142.537C724.333 142.12 723.292 141.683 722.224 141.302C720.104 140.5 717.948 139.787 715.792 139.099C713.625 138.427 711.443 137.797 709.25 137.219C704.864 136.063 700.432 135.068 695.974 134.229C694.854 134.021 693.739 133.813 692.62 133.625C691.505 133.422 690.385 133.25 689.265 133.063C687.021 132.714 684.776 132.396 682.526 132.115C680.276 131.834 678.015 131.599 675.765 131.412C673.515 131.224 671.245 131.115 668.958 130.959C666.677 130.802 664.375 130.573 662.094 130.162C660.948 129.964 659.818 129.688 658.698 129.36C658.135 129.203 657.583 129.006 657.031 128.818C656.489 128.604 655.937 128.401 655.411 128.157C654.875 127.922 654.359 127.646 653.838 127.381C653.328 127.089 652.818 126.808 652.333 126.479C651.354 125.844 650.417 125.131 649.583 124.318C648.739 123.506 647.958 122.625 647.328 121.646C646.687 120.672 646.177 119.62 645.797 118.532L645.76 118.448L645.849 118.375C647.521 117.032 649.239 115.776 650.958 114.526C652.687 113.287 654.437 112.078 656.208 110.901C657.979 109.724 659.781 108.578 661.63 107.516C663.484 106.453 665.375 105.443 667.354 104.604L667.432 104.573L667.484 104.604C670.708 106.433 674.198 107.75 677.76 108.766C681.328 109.787 684.969 110.521 688.62 111.209C692.265 111.891 695.932 112.526 699.562 113.339C703.187 114.146 706.792 115.136 710.239 116.542C713.672 117.959 717.182 119.172 720.677 120.438C724.172 121.698 727.656 122.995 731.057 124.516C734.448 126.037 737.781 127.75 740.771 130C742.255 131.125 743.646 132.391 744.828 133.849C746.005 135.302 746.958 136.953 747.531 138.75L747.292 138.823C746.729 137.063 745.792 135.443 744.63 134.011C743.469 132.573 742.094 131.318 740.614 130.203C737.656 127.974 734.333 126.261 730.953 124.745C727.568 123.235 724.083 121.933 720.594 120.672C717.099 119.412 713.583 118.198 710.146 116.776C706.713 115.375 703.125 114.391 699.505 113.584C695.885 112.776 692.224 112.141 688.573 111.459C684.922 110.771 681.271 110.037 677.693 109.011C674.12 107.99 670.604 106.667 667.359 104.823H667.484C665.828 106.193 664.12 107.459 662.39 108.703C660.667 109.943 658.906 111.136 657.125 112.297C655.338 113.459 653.531 114.589 651.682 115.651C649.828 116.709 647.943 117.729 645.979 118.594L646.031 118.438C646.51 119.464 647.114 120.422 647.797 121.308L648.333 121.948C648.521 122.157 648.719 122.354 648.911 122.558C649.094 122.766 649.307 122.948 649.51 123.136C649.713 123.323 649.917 123.516 650.14 123.683C650.989 124.401 651.927 125.016 652.885 125.573C653.364 125.86 653.864 126.099 654.359 126.349C654.87 126.578 655.37 126.813 655.89 127.006C657.953 127.844 660.13 128.334 662.344 128.677C664.552 129.026 666.802 129.177 669.062 129.313C671.328 129.448 673.609 129.537 675.901 129.709C678.193 129.907 680.463 130.157 682.734 130.448C687.271 131.032 691.792 131.745 696.276 132.646C705.239 134.453 714.13 136.797 722.646 140.198C723.713 140.61 724.76 141.084 725.818 141.526L727.38 142.24L728.161 142.604L728.932 142.985C731 143.979 733.005 145.104 734.953 146.318C736.906 147.526 738.776 148.87 740.521 150.36C742.276 151.844 743.89 153.5 745.265 155.334L745.068 155.49Z" fill="#C69157"/>
<path d="M746.818 154.24C734.521 138.438 709.932 130.667 690.021 128.839C684.188 128.297 678.245 128.453 672.562 127.016C666.88 125.573 661.286 122.146 659.141 116.677C666.651 112.115 673.141 107.474 680.646 102.906C693.432 110.167 710.203 109.318 723.766 114.984C735.536 119.906 744.927 130.229 748.734 142.432C746.641 147.385 748.917 149.281 746.818 154.24Z" fill="white"/>
<path d="M746.078 153.683C743.463 150.542 740.422 147.802 737.146 145.412C733.859 143.037 730.338 140.995 726.672 139.261C723.015 137.511 719.224 136.052 715.359 134.823C711.5 133.578 707.562 132.578 703.588 131.776C699.614 130.959 695.599 130.344 691.562 129.927C690.552 129.823 689.547 129.729 688.536 129.646C687.531 129.568 686.515 129.506 685.495 129.438C683.458 129.318 681.411 129.209 679.354 128.985C678.323 128.875 677.297 128.75 676.265 128.584C675.755 128.506 675.239 128.407 674.729 128.308C674.219 128.203 673.708 128.094 673.203 127.964C671.172 127.464 669.172 126.75 667.318 125.761C666.39 125.271 665.495 124.714 664.646 124.094C663.802 123.469 663 122.782 662.276 122.021C660.823 120.511 659.672 118.698 659.026 116.724L658.979 116.641L659.078 116.573C660.776 115.271 662.521 114.058 664.271 112.849C666.021 111.641 667.797 110.474 669.583 109.318C671.37 108.157 673.172 107.021 675 105.922C676.828 104.834 678.677 103.766 680.583 102.802L680.646 102.761L680.713 102.797C683.719 104.506 686.963 105.761 690.276 106.75C693.588 107.74 696.979 108.469 700.38 109.125C703.781 109.782 707.198 110.365 710.594 111.063C713.989 111.756 717.375 112.568 720.661 113.688C722.307 114.245 723.927 114.881 725.5 115.625C727.073 116.365 728.599 117.203 730.073 118.125C733.015 119.974 735.734 122.188 738.172 124.672C743.047 129.631 746.771 135.74 748.854 142.391L748.614 142.469C746.542 135.86 742.838 129.782 737.989 124.844C735.568 122.375 732.864 120.183 729.937 118.339C728.474 117.422 726.958 116.589 725.39 115.849C723.828 115.115 722.219 114.485 720.583 113.927C717.307 112.813 713.937 112 710.542 111.308C707.151 110.615 703.734 110.026 700.333 109.37C696.927 108.714 693.531 107.985 690.203 106.995C686.88 106 683.614 104.735 680.588 103.021L680.713 103.016C678.979 104.261 677.229 105.469 675.484 106.683C673.729 107.886 671.979 109.094 670.208 110.271C668.437 111.453 666.656 112.625 664.828 113.724C663 114.818 661.146 115.875 659.208 116.787L659.26 116.631C660.109 118.479 661.375 120.089 662.859 121.417C663.604 122.084 664.411 122.672 665.25 123.209C666.088 123.74 666.963 124.219 667.875 124.631C671.5 126.313 675.495 126.922 679.51 127.25C681.526 127.401 683.557 127.495 685.599 127.604C687.64 127.714 689.713 127.834 691.76 128.068C695.854 128.511 699.922 129.157 703.953 130.006C707.979 130.87 711.963 131.953 715.87 133.271C719.771 134.599 723.594 136.177 727.265 138.052C730.927 139.948 734.458 142.125 737.687 144.698C740.922 147.256 743.854 150.209 746.276 153.526L746.078 153.683Z" fill="#C69157"/>
<path d="M748.078 153.604C747.547 149.495 744.573 145.005 741.901 141.844C732.099 130.255 716.385 124.266 701.708 122.219C695.536 121.354 689.203 121.208 683.297 119.214C677.39 117.219 671.776 112.87 670.432 106.771C679.625 101.37 688.364 95.375 697.557 89.9688C700.682 95.1302 706.13 98.4687 711.713 100.724C717.297 102.974 723.234 104.188 728.984 105.958C734.739 107.729 740.469 110.156 744.786 114.359C750.125 119.557 750.5 126.901 751.963 133.792C753.406 140.604 749.531 146.792 748.078 153.604Z" fill="white"/>
<path d="M749.114 120.599C747.146 116.474 744.104 112.859 740.338 110.276C731.828 104.443 721.041 104.391 711.797 100.312C708.88 99.0208 706.187 97.2552 703.76 95.1874C702.5 94.1145 701.312 92.9635 700.182 91.7552C699.427 90.9427 698.88 89.8333 697.713 89.6145C696.443 89.3749 695.401 90.2083 694.344 90.7499C693.109 91.3802 691.88 92.0312 690.661 92.6927C688.151 94.0572 685.687 95.4999 683.255 96.9947C680.89 98.4583 678.578 99.9895 676.318 101.615C675.088 102.5 673.849 103.573 672.505 104.255C671.401 104.812 670.234 105.307 669.37 106.255C668.776 106.906 669.083 107.495 669.38 108.344C669.995 110.099 670.911 111.734 672.041 113.203C674.323 116.146 677.437 118.391 680.823 119.885C687.333 122.755 694.5 123.115 701.479 123.74C708.01 124.323 714.323 125.547 720.375 128.156C725.922 130.542 731.14 133.859 735.64 137.896C738.114 140.104 740.406 142.542 742.422 145.177C743.411 146.474 744.328 147.818 745.203 149.193C746.146 150.682 747.125 152.13 748.078 153.604C748.229 153.838 748.646 153.698 748.547 153.406C748.068 152.031 747.604 150.792 746.901 149.505C746.177 148.187 745.359 146.922 744.5 145.693C742.854 143.328 741.036 141.083 739.057 138.99C735.01 134.713 730.281 131.021 725.094 128.229C719.906 125.437 714.302 123.479 708.489 122.531C701.229 121.344 693.76 121.573 686.604 119.745C679.76 117.995 672.989 113.891 670.906 106.729C672.979 105.5 674.911 103.974 676.927 102.661C679.25 101.146 681.599 99.6614 683.969 98.2135C686.276 96.8124 688.62 95.4687 690.984 94.1718C692.135 93.5416 693.297 92.927 694.458 92.3229C695.307 91.8854 696.557 91.5156 697.26 90.7968C697.536 90.7135 697.802 90.6197 698.062 90.5208C700.276 94.526 703.75 97.8541 707.661 100.172C711.844 102.646 716.547 104.005 721.224 105.193C726.005 106.406 730.911 107.437 735.406 109.536C739.745 111.568 743.432 114.625 746.015 118.682C747.406 120.859 748.463 123.229 749.14 125.724C749.854 128.338 749.995 131.073 750.338 133.74C750.401 134.25 751.14 134.448 751.291 133.87C752.432 129.505 751.015 124.588 749.114 120.599Z" fill="#C69157"/>
<mask id="mask0_1247_1666" style="mask-type:luminance" maskUnits="userSpaceOnUse" x="866" y="151" width="16" height="13">
<path d="M866 151.667H881.312V163.667H866V151.667Z" fill="white"/>
</mask>
<g mask="url(#mask0_1247_1666)">
<path d="M881.156 163.271C879.979 162.334 878.833 161.365 877.687 160.386L874.26 157.438C873.12 156.453 871.953 155.485 870.755 154.558C869.552 153.641 868.312 152.756 866.995 152C866.937 151.964 866.859 151.985 866.823 152.047C866.792 152.105 866.807 152.167 866.854 152.209C868.01 153.183 869.161 154.141 870.302 155.125C871.448 156.099 872.589 157.084 873.75 158.047C874.328 158.532 874.906 159.011 875.495 159.49C876.083 159.964 876.677 160.433 877.276 160.896C878.479 161.813 879.719 162.693 881.016 163.48C881.073 163.516 881.151 163.5 881.187 163.438C881.219 163.381 881.208 163.313 881.156 163.271Z" fill="#C69157"/>
</g>
<mask id="mask1_1247_1666" style="mask-type:luminance" maskUnits="userSpaceOnUse" x="748" y="134" width="134" height="33">
<path d="M748.667 134.333H881.312V166.333H748.667V134.333Z" fill="white"/>
</mask>
<g mask="url(#mask1_1247_1666)">
<path d="M844.755 135.151L881.13 163.219L766.37 166.032L749.87 145.938L844.755 135.151Z" fill="white"/>
</g>
<mask id="mask2_1247_1666" style="mask-type:luminance" maskUnits="userSpaceOnUse" x="750" y="146" width="132" height="21">
<path d="M750 146.333H881.312V166.333H750V146.333Z" fill="white"/>
</mask>
<g mask="url(#mask2_1247_1666)">
<path d="M765.755 166.219L762.682 162.297C762.453 161.802 762.151 161.354 761.625 160.948L750.234 146.406C750.24 146.401 750.24 146.396 750.24 146.391L766.37 166.031L880.615 163.234L765.755 166.219Z" fill="#F1F1F2"/>
</g>
<path d="M762.682 162.297L761.625 160.948C762.151 161.354 762.453 161.802 762.682 162.297Z" fill="#C69157"/>
<path d="M750.234 146.406L749.87 145.938L750.239 146.391C750.239 146.396 750.239 146.401 750.234 146.406Z" fill="#F1F0F1"/>
<mask id="mask3_1247_1666" style="mask-type:luminance" maskUnits="userSpaceOnUse" x="748" y="134" width="134" height="33">
<path d="M748.667 134.333H881.312V166.333H748.667V134.333Z" fill="white"/>
</mask>
<g mask="url(#mask3_1247_1666)">
<path d="M766.37 166.032L750.239 146.391L749.87 145.938L844.755 135.151L881.13 163.219H881.094L880.614 163.235L766.37 166.032Z" fill="#F1F0F1"/>
</g>
<path d="M765.198 163.88C781.235 151.911 822.297 151.703 841.979 155.229C847.745 156.265 853.438 157.995 859.297 158.114C865.156 158.234 871.453 156.416 874.969 151.719C868.938 145.323 863.906 139.12 857.875 132.724C843.625 136.323 827.682 131.047 813.104 132.911C800.453 134.526 756.636 137.406 749.74 148.161L765.198 163.88Z" fill="white"/>
<path d="M765.271 163.984C767.198 162.615 769.312 161.537 771.469 160.594C773.635 159.656 775.864 158.875 778.14 158.24C780.406 157.594 782.703 157.047 785.021 156.589C786.172 156.344 787.338 156.156 788.5 155.948C789.083 155.849 789.667 155.771 790.25 155.677C790.838 155.594 791.417 155.5 792.005 155.427C796.682 154.787 801.396 154.391 806.114 154.172C808.479 154.052 810.838 154.005 813.203 153.969C815.562 153.958 817.927 153.969 820.292 154.031C821.469 154.052 822.651 154.109 823.828 154.146C825.01 154.214 826.193 154.255 827.37 154.339C829.724 154.479 832.078 154.688 834.422 154.943C836.771 155.182 839.109 155.484 841.422 155.885C843.739 156.281 846.047 156.781 848.375 157.26C850.703 157.734 853.057 158.193 855.448 158.443C856.64 158.568 857.844 158.662 859.052 158.672C860.26 158.688 861.474 158.615 862.672 158.474C863.875 158.313 865.062 158.073 866.224 157.745C867.39 157.417 868.515 156.958 869.599 156.422C871.771 155.354 873.687 153.755 875.068 151.792L875.13 151.724L875.062 151.63C873.781 149.912 872.422 148.271 871.047 146.651C869.672 145.031 868.245 143.448 866.833 141.854L864.687 139.49C863.963 138.703 863.234 137.927 862.505 137.151C861.031 135.609 859.531 134.089 857.963 132.635L857.906 132.583L857.844 132.599C854.25 133.51 850.531 133.849 846.828 133.885C843.12 133.917 839.417 133.662 835.713 133.349C832.015 133.042 828.318 132.682 824.604 132.495C820.89 132.313 817.156 132.307 813.458 132.75C809.771 133.203 806.068 133.438 802.364 133.729C798.661 134.016 794.953 134.344 791.276 134.901C787.604 135.464 783.937 136.234 780.463 137.609C778.729 138.302 777.052 139.151 775.531 140.245C774.01 141.328 772.651 142.672 771.63 144.25L771.844 144.385C772.844 142.839 774.177 141.521 775.677 140.448C777.177 139.375 778.838 138.531 780.557 137.844C784 136.484 787.656 135.714 791.312 135.151C794.984 134.594 798.682 134.266 802.385 133.979C806.083 133.693 809.797 133.453 813.484 133C817.167 132.557 820.885 132.568 824.588 132.75C828.297 132.932 831.995 133.292 835.693 133.604C839.396 133.912 843.109 134.172 846.833 134.135C850.547 134.099 854.286 133.76 857.906 132.844L857.781 132.807V132.813C859.135 134.458 860.51 136.083 861.875 137.719L863.937 140.156L866.01 142.583C867.406 144.193 868.792 145.807 870.255 147.365C871.724 148.912 873.234 150.427 874.875 151.802L874.87 151.641C873.37 153.458 871.437 154.87 869.302 155.792C867.177 156.745 864.875 157.245 862.568 157.469C860.25 157.667 857.917 157.542 855.594 157.219C854.437 157.068 853.281 156.859 852.125 156.635C850.974 156.412 849.818 156.162 848.667 155.906C846.354 155.391 844.036 154.839 841.677 154.432C839.318 154.016 836.953 153.693 834.583 153.438C832.213 153.188 829.838 152.99 827.458 152.854C826.271 152.771 825.083 152.729 823.89 152.672C822.703 152.635 821.51 152.583 820.323 152.568C815.562 152.464 810.802 152.563 806.047 152.839C801.292 153.104 796.552 153.604 791.844 154.323C791.255 154.406 790.667 154.516 790.083 154.615C789.495 154.719 788.906 154.813 788.323 154.927C787.151 155.162 785.984 155.38 784.823 155.656C783.656 155.901 782.505 156.203 781.349 156.5C780.771 156.651 780.203 156.828 779.63 156.99L778.771 157.24L777.922 157.516C775.646 158.234 773.411 159.094 771.255 160.109C769.094 161.12 767.01 162.318 765.12 163.781L765.271 163.984Z" fill="#C69157"/>
<path d="M849.365 123.802C835.51 128.703 819.146 124.922 804.807 128.12C792.359 130.891 753.88 141.412 748 152.755L762.786 159.974C777.656 146.578 815.682 145.985 835.604 147.682C841.443 148.177 847.271 149.375 853.115 148.953C858.958 148.531 865.068 146.146 868.135 141.136C861.542 135.323 855.964 129.615 849.365 123.802Z" fill="white"/>
<path d="M762.87 160.068C764.615 158.578 766.557 157.344 768.573 156.266C770.594 155.198 772.698 154.287 774.859 153.531C777.021 152.776 779.208 152.099 781.432 151.552C782.536 151.25 783.661 151.026 784.776 150.766L786.458 150.427C787.021 150.307 787.583 150.203 788.146 150.11C797.172 148.479 806.359 147.875 815.526 147.719C820.115 147.662 824.708 147.75 829.292 147.958C831.578 148.068 833.87 148.219 836.151 148.406C838.427 148.599 840.708 148.891 843.005 149.141C845.297 149.391 847.615 149.573 849.948 149.583C852.276 149.594 854.635 149.401 856.911 148.849C857.198 148.776 857.484 148.719 857.766 148.636L858.609 148.386C859.167 148.198 859.719 148.016 860.26 147.781C860.807 147.568 861.333 147.307 861.859 147.052L862.63 146.63C862.891 146.495 863.13 146.323 863.38 146.172C864.359 145.531 865.302 144.823 866.12 143.979C866.938 143.146 867.651 142.208 868.24 141.203L868.292 141.12L868.219 141.042C866.734 139.505 865.224 138.005 863.714 136.511C862.203 135.011 860.672 133.531 859.135 132.063C858.37 131.323 857.578 130.604 856.802 129.875C856.016 129.156 855.224 128.443 854.422 127.74C852.818 126.339 851.172 124.974 849.448 123.708L849.385 123.662L849.323 123.682C845.828 124.917 842.161 125.599 838.474 125.974C834.786 126.354 831.073 126.438 827.359 126.469C823.651 126.505 819.932 126.485 816.219 126.646C812.505 126.807 808.786 127.146 805.141 127.927C801.516 128.719 797.849 129.297 794.188 129.922C790.526 130.552 786.865 131.219 783.255 132.115C779.651 133.016 776.068 134.12 772.734 135.813C771.073 136.656 769.479 137.662 768.062 138.886C766.651 140.11 765.422 141.568 764.547 143.235L764.771 143.354C765.63 141.719 766.833 140.287 768.229 139.078C769.625 137.87 771.198 136.875 772.849 136.037C776.151 134.36 779.719 133.261 783.312 132.36C786.917 131.469 790.568 130.802 794.229 130.172C797.885 129.542 801.557 128.964 805.193 128.172C808.818 127.396 812.526 127.057 816.229 126.896C819.932 126.74 823.651 126.755 827.365 126.724C831.078 126.688 834.797 126.604 838.5 126.229C842.198 125.849 845.891 125.167 849.406 123.922L849.281 123.896C850.755 125.448 852.255 126.953 853.771 128.448C855.286 129.938 856.812 131.417 858.365 132.875C859.917 134.333 861.484 135.781 863.094 137.182C864.703 138.583 866.339 139.953 868.052 141.235L868.026 141.073C866.75 142.969 865.031 144.526 863.062 145.651C862.818 145.787 862.578 145.938 862.323 146.063L861.562 146.432C861.042 146.656 860.526 146.886 859.984 147.068C858.922 147.448 857.833 147.755 856.724 147.974C854.505 148.443 852.24 148.542 849.964 148.49C848.828 148.453 847.693 148.38 846.557 148.276C845.422 148.172 844.281 148.037 843.146 147.901C840.87 147.62 838.583 147.297 836.276 147.068C833.969 146.844 831.667 146.693 829.359 146.568C827.052 146.448 824.745 146.365 822.432 146.328C820.125 146.297 817.818 146.302 815.505 146.333C810.891 146.422 806.271 146.646 801.672 147.083L799.948 147.25L798.224 147.443C797.073 147.563 795.932 147.729 794.781 147.88C792.5 148.219 790.214 148.578 787.943 149.047C786.807 149.255 785.682 149.526 784.552 149.776C783.432 150.063 782.302 150.318 781.193 150.646C778.958 151.255 776.755 151.985 774.599 152.833C772.438 153.667 770.333 154.656 768.323 155.813C766.307 156.958 764.396 158.297 762.703 159.88L762.87 160.068Z" fill="#C69157"/>
<path d="M754.583 156.443C767.932 141.521 804.495 136.875 824.484 136.411C830.344 136.276 836.26 136.839 842.026 135.792C847.792 134.74 853.609 131.708 856.12 126.401C848.943 121.333 842.781 116.255 835.599 111.188C822.354 117.557 805.677 115.557 791.76 120.286C779.687 124.385 758.104 127.792 753.479 139.703L754.583 156.443Z" fill="white"/>
<path d="M754.677 156.526C756.234 154.875 758.016 153.453 759.875 152.167C761.74 150.885 763.708 149.755 765.75 148.771C767.781 147.771 769.87 146.885 771.99 146.094L772.786 145.792L773.583 145.51L775.193 144.953C776.271 144.609 777.344 144.245 778.432 143.938C780.604 143.286 782.802 142.719 785.005 142.177C787.208 141.656 789.427 141.177 791.656 140.755C796.109 139.896 800.599 139.214 805.104 138.677C806.234 138.547 807.359 138.417 808.49 138.307C809.615 138.182 810.745 138.083 811.875 137.974C814.135 137.781 816.401 137.615 818.667 137.49C820.927 137.365 823.203 137.281 825.458 137.25C827.714 137.214 829.99 137.266 832.276 137.266C834.568 137.266 836.875 137.193 839.182 136.938C840.339 136.818 841.484 136.625 842.625 136.375C843.198 136.255 843.76 136.099 844.323 135.948C844.88 135.771 845.443 135.609 845.99 135.396C846.536 135.203 847.073 134.958 847.609 134.729C848.135 134.474 848.661 134.229 849.167 133.938C850.193 133.37 851.172 132.724 852.062 131.964C852.958 131.214 853.797 130.391 854.495 129.458C855.198 128.526 855.781 127.516 856.234 126.453L856.276 126.37L856.193 126.297C854.62 124.839 852.99 123.469 851.354 122.104C849.714 120.75 848.052 119.422 846.365 118.125C844.677 116.828 842.958 115.568 841.188 114.38C839.411 113.188 837.594 112.057 835.677 111.083H835.672L835.599 111.047L835.547 111.073C832.203 112.677 828.63 113.75 825.005 114.526C821.38 115.297 817.698 115.781 814.01 116.214C810.323 116.651 806.625 117.031 802.948 117.589C799.276 118.151 795.615 118.885 792.073 120.057C788.557 121.234 784.969 122.203 781.396 123.224C777.823 124.245 774.26 125.302 770.766 126.583C767.276 127.87 763.833 129.354 760.703 131.391C759.141 132.411 757.667 133.583 756.391 134.953C755.115 136.323 754.052 137.906 753.359 139.656L753.594 139.75C754.271 138.031 755.318 136.474 756.573 135.125C757.833 133.776 759.292 132.615 760.839 131.604C763.948 129.583 767.375 128.099 770.849 126.818C774.333 125.542 777.896 124.484 781.464 123.469C785.036 122.448 788.625 121.479 792.156 120.297C795.672 119.135 799.323 118.396 802.99 117.839C806.656 117.281 810.349 116.901 814.042 116.464C817.729 116.031 821.417 115.547 825.062 114.771C828.698 113.995 832.292 112.917 835.656 111.302L835.531 111.292C837.089 112.776 838.708 114.156 840.344 115.51C841.984 116.865 843.656 118.177 845.359 119.458C847.057 120.74 848.786 121.99 850.557 123.177C852.339 124.359 854.146 125.505 856.047 126.5L856.005 126.344C855.458 127.339 854.792 128.25 854.047 129.083L853.469 129.688C853.271 129.885 853.057 130.068 852.854 130.255C852.656 130.448 852.427 130.615 852.214 130.792C851.995 130.969 851.781 131.146 851.547 131.297C850.651 131.953 849.677 132.505 848.682 132.995C848.188 133.245 847.667 133.453 847.156 133.667C846.635 133.859 846.12 134.063 845.583 134.219C843.474 134.917 841.266 135.25 839.036 135.443C836.807 135.641 834.552 135.635 832.286 135.615C830.021 135.594 827.74 135.526 825.438 135.547C823.141 135.583 820.859 135.677 818.573 135.812C814.005 136.083 809.448 136.49 804.906 137.083C795.844 138.266 786.818 140 778.083 142.807C776.99 143.146 775.917 143.542 774.833 143.917L773.224 144.521L772.422 144.828L771.625 145.156C769.495 146.005 767.417 146.995 765.391 148.068C763.365 149.141 761.406 150.354 759.557 151.719C757.708 153.078 755.99 154.62 754.49 156.359L754.677 156.526Z" fill="#C69157"/>
<path d="M753.016 155.162C766.359 140.24 791.422 134.167 811.406 133.703C817.266 133.568 823.188 134.136 828.953 133.084C834.719 132.037 840.531 129 843.047 123.693C835.865 118.625 829.708 113.547 822.526 108.479C809.276 114.849 792.604 112.854 778.688 117.578C766.609 121.677 756.536 131.334 751.906 143.25C753.656 148.339 751.26 150.073 753.016 155.162Z" fill="white"/>
<path d="M753.792 154.656C756.61 151.703 759.833 149.177 763.266 147.016C766.708 144.87 770.36 143.073 774.136 141.594C777.901 140.099 781.787 138.906 785.724 137.943C789.656 136.969 793.656 136.24 797.677 135.708C801.693 135.167 805.745 134.828 809.797 134.688C810.813 134.651 811.823 134.63 812.833 134.62C813.844 134.604 814.865 134.61 815.88 134.62C817.922 134.636 819.979 134.667 822.042 134.583C823.078 134.547 824.115 134.49 825.151 134.396C825.667 134.349 826.182 134.292 826.703 134.229C827.219 134.156 827.735 134.078 828.25 133.985C830.313 133.625 832.354 133.052 834.271 132.188C835.229 131.766 836.156 131.271 837.052 130.714C837.938 130.151 838.776 129.516 839.552 128.807C841.11 127.401 842.38 125.667 843.156 123.745L843.208 123.667L843.12 123.589C841.511 122.172 839.854 120.844 838.193 119.516C836.526 118.193 834.833 116.906 833.13 115.63C831.427 114.354 829.708 113.099 827.958 111.875C826.208 110.662 824.432 109.474 822.599 108.38L822.542 108.333L822.474 108.365C819.354 109.86 816.031 110.896 812.662 111.656C809.287 112.417 805.854 112.912 802.417 113.328C798.979 113.75 795.531 114.104 792.094 114.563C788.662 115.026 785.229 115.604 781.87 116.495C780.193 116.943 778.531 117.464 776.917 118.094C775.297 118.724 773.714 119.458 772.182 120.276C769.12 121.922 766.255 123.943 763.656 126.25C758.453 130.87 754.323 136.708 751.787 143.203L752.026 143.292C754.542 136.839 758.651 131.031 763.823 126.443C766.412 124.146 769.255 122.136 772.302 120.5C773.823 119.682 775.396 118.958 777.005 118.328C778.615 117.703 780.266 117.182 781.938 116.74C785.281 115.849 788.698 115.271 792.13 114.813C795.563 114.354 799.011 114 802.448 113.578C805.891 113.162 809.328 112.662 812.719 111.901C816.104 111.141 819.443 110.099 822.583 108.594L822.453 108.583C824.099 109.943 825.761 111.271 827.422 112.599C829.089 113.922 830.755 115.245 832.443 116.542C834.125 117.844 835.823 119.13 837.573 120.354C839.323 121.568 841.099 122.755 842.974 123.797L842.932 123.636C841.953 125.422 840.583 126.938 839.011 128.162C838.224 128.776 837.38 129.313 836.505 129.787C835.63 130.261 834.724 130.677 833.792 131.026C830.063 132.458 826.037 132.792 822.005 132.844C819.985 132.86 817.953 132.813 815.906 132.781C813.86 132.75 811.781 132.729 809.729 132.823C805.615 132.985 801.511 133.344 797.432 133.917C793.354 134.505 789.307 135.313 785.318 136.36C781.339 137.417 777.417 138.735 773.625 140.354C769.839 141.99 766.172 143.922 762.771 146.266C759.375 148.594 756.245 151.339 753.604 154.49L753.792 154.656Z" fill="#C69157"/>
<path d="M751.802 154.443C752.609 150.381 755.885 146.099 758.766 143.131C769.333 132.245 785.417 127.344 800.198 126.302C806.417 125.865 812.75 126.151 818.776 124.568C824.802 122.985 830.698 119.026 832.458 113.037C823.651 107.016 815.344 100.438 806.542 94.417C803.073 99.3493 797.406 102.308 791.682 104.172C785.958 106.037 779.953 106.844 774.094 108.214C768.234 109.589 762.354 111.615 757.76 115.511C752.078 120.334 751.203 127.631 749.276 134.407C747.37 141.104 750.818 147.547 751.802 154.443Z" fill="white"/>
<path d="M753.016 121.443C755.266 117.459 758.542 114.063 762.479 111.745C771.365 106.505 782.13 107.193 791.625 103.755C794.63 102.672 797.432 101.094 799.995 99.1929C801.323 98.2085 802.589 97.1408 803.797 96.0158C804.609 95.2606 805.229 94.1877 806.406 94.0471C807.693 93.896 808.672 94.7971 809.693 95.4117C810.88 96.1252 812.063 96.8596 813.234 97.6044C815.646 99.1356 818.005 100.74 820.328 102.406C822.589 104.026 824.792 105.714 826.938 107.49C828.099 108.453 829.266 109.61 830.557 110.38C831.62 111.016 832.755 111.589 833.552 112.589C834.099 113.281 833.755 113.844 833.396 114.677C832.667 116.386 831.641 117.953 830.412 119.339C827.938 122.12 824.677 124.146 821.193 125.406C814.505 127.823 807.333 127.693 800.323 127.839C793.771 127.974 787.386 128.766 781.177 130.948C775.479 132.953 770.042 135.901 765.276 139.62C762.662 141.656 760.208 143.927 758.021 146.422C756.943 147.646 755.932 148.922 754.969 150.235C753.927 151.662 752.849 153.037 751.802 154.443C751.636 154.667 751.224 154.495 751.344 154.214C751.917 152.87 752.464 151.667 753.255 150.432C754.063 149.167 754.969 147.964 755.912 146.792C757.708 144.547 759.677 142.427 761.797 140.479C766.125 136.485 771.094 133.13 776.458 130.698C781.823 128.271 787.552 126.698 793.412 126.151C800.74 125.464 808.172 126.203 815.438 124.87C822.386 123.594 829.422 119.964 831.984 112.959C830.005 111.589 828.177 109.938 826.261 108.49C824.042 106.818 821.802 105.172 819.537 103.573C817.328 102.011 815.083 100.511 812.807 99.0575C811.703 98.3492 810.589 97.6564 809.469 96.9742C808.656 96.4794 807.432 96.0262 806.776 95.2606C806.511 95.1617 806.25 95.0471 805.995 94.9273C803.516 98.771 799.823 101.86 795.766 103.896C791.422 106.084 786.636 107.115 781.891 107.979C777.037 108.86 772.073 109.557 767.448 111.344C762.979 113.073 759.094 115.87 756.234 119.74C754.703 121.818 753.484 124.11 752.641 126.552C751.75 129.11 751.422 131.828 750.901 134.469C750.802 134.969 750.052 135.12 749.938 134.531C749.099 130.099 750.844 125.292 753.016 121.443Z" fill="#C69157"/>
<mask id="mask4_1247_1666" style="mask-type:luminance" maskUnits="userSpaceOnUse" x="617" y="153" width="265" height="27">
<path d="M617.312 153H881.312V179.667H617.312V153Z" fill="white"/>
</mask>
<g mask="url(#mask4_1247_1666)">
<path d="M747.411 175.713C739.005 175.239 734.458 167.562 733.172 165C737.484 160.364 741.88 155.719 748.734 156C755.453 156.276 760.667 161.766 764.182 166.864C762.739 169.026 757.161 176.26 747.411 175.713ZM881.057 163.276C880.917 162.526 880.25 161.989 879.489 162.016L765.755 166.219C763.031 159.083 756.031 154.12 748.771 153.604C741.219 153.073 735.224 157.104 731.75 164.073L618.969 153.203C618.292 153.135 617.698 153.672 617.698 154.359C617.698 154.948 618.146 155.448 618.734 155.51L730.651 167.781C730.651 167.781 737.255 179 748.213 179.385C759.167 179.771 766.88 169.328 766.88 169.328L879.604 165.099C880.536 165.062 881.224 164.203 881.057 163.276Z" fill="#0994BE"/>
</g>
<mask id="mask5_1247_1666" style="mask-type:luminance" maskUnits="userSpaceOnUse" x="617" y="151" width="265" height="29">
<path d="M617.312 151.667H881.312V179.938H617.312V151.667Z" fill="white"/>
</mask>
<g mask="url(#mask5_1247_1666)">
<path d="M881.167 163.256C881.224 163.573 881.198 163.912 881.062 164.209C880.937 164.506 880.719 164.761 880.453 164.943C880.182 165.12 879.854 165.219 879.536 165.219L878.635 165.256L875.031 165.396L867.823 165.704L853.411 166.365L838.995 167.026C834.187 167.24 829.385 167.443 824.578 167.631C814.964 168 805.349 168.334 795.734 168.641C786.12 168.948 776.505 169.224 766.885 169.422L766.958 169.386H766.953C765.901 170.901 764.651 172.261 763.307 173.532C762.63 174.157 761.927 174.756 761.193 175.323C760.464 175.891 759.693 176.412 758.901 176.896C758.109 177.386 757.286 177.818 756.437 178.204C755.589 178.594 754.708 178.917 753.812 179.183C752.917 179.459 751.99 179.641 751.057 179.771L750.359 179.855C750.125 179.875 749.891 179.881 749.656 179.896C749.187 179.938 748.714 179.912 748.245 179.917C746.365 179.844 744.49 179.474 742.74 178.792C742.297 178.636 741.875 178.433 741.443 178.25C741.026 178.042 740.604 177.839 740.198 177.605C739.786 177.386 739.396 177.131 739 176.886C738.609 176.625 738.224 176.365 737.854 176.089C736.354 174.985 735 173.704 733.781 172.318C732.568 170.928 731.458 169.443 730.568 167.829L730.641 167.875H730.635C711.594 166.058 692.573 164.073 673.552 162.032L666.422 161.261L659.297 160.464C654.542 159.933 649.797 159.36 645.047 158.803L630.802 157.131L623.672 156.318L619.219 155.829L618.771 155.776C618.708 155.771 618.604 155.761 618.516 155.735C618.427 155.714 618.344 155.688 618.26 155.646C617.927 155.49 617.661 155.204 617.531 154.86C617.406 154.516 617.411 154.125 617.562 153.787C617.708 153.448 617.99 153.178 618.328 153.037C618.495 152.969 618.682 152.933 618.865 152.933L619 152.938L619.109 152.948L619.333 152.969L621.12 153.141L624.687 153.474L631.833 154.136L646.12 155.428L674.693 157.974C684.219 158.829 693.74 159.735 703.255 160.657C708.016 161.115 712.771 161.615 717.521 162.162C722.271 162.709 727.021 163.287 731.76 163.98L731.667 164.032C732.365 162.344 733.292 160.73 734.432 159.271C735.578 157.813 736.953 156.511 738.531 155.49C740.104 154.459 741.875 153.719 743.714 153.303C745.557 152.886 747.464 152.797 749.333 152.98C753.083 153.349 756.667 154.886 759.578 157.209C761.036 158.37 762.328 159.735 763.396 161.25C764.464 162.766 765.302 164.433 765.839 166.188L765.75 166.125C775.406 165.61 785.062 165.183 794.724 164.771L809.208 164.193L816.453 163.917L823.703 163.657C833.359 163.323 843.026 163.058 852.687 162.766C857.521 162.615 862.349 162.49 867.182 162.323L874.427 162.079L878.052 161.948L878.953 161.917L879.406 161.901C879.557 161.896 879.729 161.896 879.885 161.933C880.531 162.063 881.057 162.61 881.167 163.256ZM880.943 163.297C880.844 162.745 880.391 162.271 879.839 162.162C879.698 162.131 879.568 162.131 879.417 162.136L878.964 162.151L878.057 162.188L874.437 162.329L867.193 162.62C862.365 162.813 857.536 163.037 852.703 163.25C843.047 163.672 833.391 164.12 823.729 164.495L816.484 164.776L809.24 165.037L794.75 165.526C785.089 165.829 775.427 166.12 765.76 166.313H765.755L765.698 166.318L765.667 166.256C764.146 162.959 761.781 160.151 758.911 158.089C756.047 156.026 752.677 154.683 749.198 154.344C747.458 154.178 745.698 154.245 743.995 154.594C742.286 154.938 740.641 155.568 739.125 156.448C737.609 157.329 736.24 158.474 735.026 159.776C733.807 161.084 732.76 162.558 731.833 164.115L731.797 164.172L731.74 164.167C726.958 163.943 722.187 163.605 717.422 163.235C712.651 162.86 707.891 162.443 703.13 161.985C693.609 161.073 684.094 160.146 674.578 159.162L646.042 156.204L631.776 154.74L624.635 154.026L621.068 153.672L619.286 153.495L619.062 153.474L618.948 153.464L618.859 153.459C618.745 153.459 618.63 153.48 618.521 153.526C618.307 153.61 618.13 153.782 618.036 153.995C617.937 154.209 617.937 154.459 618.016 154.678C618.099 154.896 618.271 155.079 618.479 155.178C618.531 155.198 618.589 155.219 618.641 155.235C618.703 155.25 618.75 155.256 618.828 155.261L619.276 155.313L620.167 155.407L623.729 155.797L630.865 156.547L645.135 158C649.891 158.49 654.651 158.959 659.406 159.464L666.536 160.235L673.667 161.026C692.672 163.151 711.672 165.334 730.656 167.688L730.703 167.693L730.729 167.735C731.771 169.219 732.953 170.615 734.229 171.896C735.5 173.188 736.875 174.36 738.359 175.375C739.094 175.886 739.865 176.349 740.651 176.761C741.047 176.974 741.453 177.157 741.854 177.349C742.266 177.516 742.672 177.698 743.094 177.839C743.505 178 743.932 178.12 744.359 178.25C744.568 178.313 744.786 178.355 745 178.412L745.323 178.49C745.432 178.516 745.542 178.532 745.651 178.553L746.302 178.672L746.958 178.756C747.068 178.771 747.177 178.787 747.286 178.797L747.62 178.818C747.839 178.829 748.057 178.849 748.281 178.855C750.047 178.907 751.823 178.688 753.531 178.209C754.391 177.969 755.234 177.678 756.052 177.329C756.875 176.98 757.682 176.589 758.464 176.141C760.026 175.266 761.516 174.224 762.906 173.068C764.297 171.912 765.615 170.651 766.802 169.276L766.807 169.271L766.833 169.235H766.88C776.484 168.709 786.094 168.266 795.708 167.849C805.318 167.433 814.927 167.047 824.542 166.698C829.349 166.521 834.156 166.365 838.964 166.214L853.385 165.797L867.812 165.375L875.021 165.141L878.63 165.011L879.531 164.98C879.818 164.98 880.083 164.896 880.323 164.75C880.792 164.443 881.047 163.849 880.943 163.297Z" fill="#C69157"/>
</g>
<path d="M817.912 117.698C809.583 121.099 800.537 121.391 791.703 122.245C783.714 123.021 775.469 124.422 768.766 129.162C767.162 130.297 765.672 131.599 764.38 133.078C763.141 134.495 761.912 136.151 761.396 137.984C761.354 138.125 761.547 138.193 761.625 138.078C762.698 136.552 763.599 134.953 764.828 133.531C766.021 132.156 767.38 130.932 768.844 129.859C771.844 127.667 775.25 126.104 778.797 125.042C787.156 122.547 795.964 122.646 804.542 121.479C809.162 120.849 813.719 119.802 817.958 117.807C818.021 117.776 817.974 117.672 817.912 117.698Z" fill="#C69157"/>
<path d="M814.719 110.198C813.177 111.375 811.708 112.557 809.99 113.474C808.26 114.391 806.453 115.13 804.583 115.708C800.755 116.886 796.766 117.432 792.797 117.833C785.458 118.573 777.932 118.844 771.016 121.688C767.5 123.136 763.88 125.297 761.813 128.589C761.76 128.667 761.88 128.761 761.948 128.688C764.547 126.052 767.302 123.86 770.719 122.38C774.172 120.886 777.885 120.063 781.589 119.511C789.162 118.38 796.912 118.516 804.302 116.307C808.063 115.182 812.214 113.391 814.839 110.349C814.906 110.271 814.813 110.125 814.719 110.198Z" fill="#C69157"/>
<path d="M804.479 101.719C801.531 108.021 794.703 110.896 788.266 112.161C781.365 113.526 774.063 113.625 767.74 117.057C765.094 118.495 761.88 120.818 760.906 123.823C760.886 123.885 760.974 123.937 761.016 123.891C761.99 122.672 762.807 121.375 763.948 120.286C765.104 119.182 766.432 118.266 767.834 117.489C770.844 115.833 774.167 114.917 777.526 114.297C784.516 113.016 792.063 112.87 798.271 108.984C801.057 107.245 803.401 104.87 804.636 101.781C804.672 101.693 804.521 101.63 804.479 101.719Z" fill="#C69157"/>
<path d="M856.713 139.927C846.922 145.656 835.38 143.542 824.656 142.896C812.651 142.167 800.547 143.13 788.797 145.708C785.469 146.443 782.172 147.302 778.911 148.292C775.719 149.255 772.437 150.229 769.458 151.76C769.396 151.792 769.437 151.885 769.5 151.87C772.448 151.063 775.297 149.922 778.213 149.016C781.135 148.104 784.088 147.302 787.068 146.604C793.062 145.198 799.151 144.214 805.281 143.667C811.375 143.12 817.505 143.005 823.614 143.323C829.161 143.615 834.687 144.333 840.25 144.318C846.015 144.302 851.974 143.458 856.828 140.12C856.943 140.042 856.838 139.854 856.713 139.927Z" fill="#C69157"/>
<path d="M866.818 149.083C863.281 151.766 858.818 152.245 854.516 152.109C849.557 151.953 844.609 151.344 839.656 151.073C828.875 150.479 818.057 150.521 807.276 151.078C804.214 151.234 801.156 151.443 798.099 151.693C795.161 151.932 792.193 152.13 789.286 152.651C789.229 152.662 789.245 152.755 789.302 152.755C792.12 152.636 794.922 152.276 797.729 152.042C800.422 151.818 803.115 151.636 805.807 151.484C811.323 151.172 816.839 151.021 822.365 151.026C827.885 151.037 833.406 151.193 838.917 151.484C843.927 151.745 848.917 152.328 853.927 152.547C858.474 152.74 863.359 152.37 866.948 149.245C867.036 149.172 866.911 149.011 866.818 149.083Z" fill="#C69157"/>
<path d="M847.776 126.422C846.682 127.776 845.536 129.042 844.089 130.031C842.661 131.01 841.042 131.693 839.38 132.172C839.292 132.198 839.333 132.323 839.422 132.313C842.823 131.828 846.266 129.589 847.88 126.5C847.911 126.438 847.823 126.359 847.776 126.422Z" fill="#C69157"/>
<path d="M833.542 123.86C829.812 126.401 825.672 127.901 821.219 128.547C816.104 129.282 810.922 128.964 805.781 128.964C796.583 128.959 787.443 130.448 778.755 133.479C776.432 134.292 774.151 135.203 771.911 136.219C769.641 137.25 767.141 138.282 765.182 139.849C765.125 139.896 765.182 139.995 765.25 139.974C767.318 139.188 769.234 137.974 771.239 137.037C773.432 136.011 775.667 135.084 777.937 134.261C782.312 132.677 786.823 131.469 791.401 130.657C796.151 129.818 800.958 129.427 805.781 129.433C810.844 129.433 815.932 129.735 820.969 129.052C825.458 128.448 830.182 127.052 833.583 123.912C833.609 123.886 833.573 123.839 833.542 123.86Z" fill="#C69157"/>
<path d="M684.401 112.183C692.495 116.115 701.505 116.99 710.266 118.401C718.193 119.688 726.334 121.615 732.719 126.776C734.245 128.011 735.651 129.406 736.849 130.964C737.995 132.459 739.11 134.188 739.511 136.052C739.542 136.198 739.349 136.25 739.276 136.136C738.302 134.537 737.505 132.886 736.365 131.391C735.266 129.943 733.99 128.63 732.594 127.464C729.745 125.084 726.443 123.308 722.969 122.021C714.792 118.995 705.99 118.531 697.505 116.818C692.932 115.891 688.453 114.552 684.349 112.292C684.292 112.255 684.339 112.156 684.401 112.183Z" fill="#C69157"/>
<path d="M688.067 104.907C689.531 106.183 690.922 107.454 692.583 108.48C694.25 109.506 696.005 110.36 697.833 111.052C701.578 112.474 705.521 113.276 709.458 113.927C716.734 115.141 724.229 115.891 730.948 119.172C734.37 120.839 737.838 123.23 739.692 126.646C739.739 126.73 739.614 126.813 739.552 126.74C737.125 123.943 734.515 121.579 731.198 119.881C727.849 118.172 724.198 117.11 720.536 116.318C713.052 114.709 705.307 114.344 698.073 111.667C694.39 110.308 690.364 108.256 687.942 105.052C687.88 104.969 687.979 104.829 688.067 104.907Z" fill="#C69157"/>
<path d="M698.823 97.0989C701.365 103.578 708 106.885 714.344 108.562C721.141 110.359 728.427 110.932 734.51 114.76C737.063 116.37 740.12 118.891 740.901 121.953C740.917 122.01 740.828 122.062 740.786 122.01C739.896 120.729 739.162 119.385 738.094 118.229C737.005 117.052 735.745 116.047 734.396 115.187C731.495 113.344 728.24 112.208 724.922 111.38C718.026 109.656 710.505 109.021 704.563 104.75C701.891 102.833 699.703 100.312 698.667 97.151C698.635 97.0624 698.792 97.0051 698.823 97.0989Z" fill="#C69157"/>
<path d="M644.265 131.886C653.672 138.229 665.323 136.86 676.068 136.896C688.094 136.943 700.114 138.682 711.672 142.005C714.948 142.948 718.182 144.016 721.375 145.214C724.5 146.386 727.713 147.568 730.588 149.281C730.646 149.318 730.599 149.406 730.536 149.386C727.646 148.391 724.88 147.073 722.026 145.979C719.167 144.891 716.271 143.896 713.344 143.005C707.453 141.219 701.437 139.849 695.354 138.906C689.307 137.974 683.193 137.464 677.078 137.391C671.521 137.328 665.963 137.693 660.417 137.323C654.661 136.938 648.765 135.714 644.14 132.068C644.026 131.985 644.14 131.802 644.265 131.886Z" fill="#C69157"/>
<path d="M633.599 140.37C636.953 143.281 641.38 144.042 645.682 144.182C650.641 144.344 655.615 144.052 660.578 144.099C671.375 144.198 682.161 144.932 692.885 146.177C695.937 146.531 698.979 146.932 702.01 147.38C704.927 147.807 707.875 148.198 710.74 148.901C710.797 148.917 710.776 149.011 710.719 149.005C707.917 148.703 705.141 148.167 702.354 147.755C699.682 147.359 697.01 147 694.328 146.677C688.849 146.016 683.349 145.511 677.839 145.162C672.328 144.818 666.807 144.62 661.286 144.557C656.271 144.5 651.25 144.761 646.24 144.656C641.687 144.557 636.839 143.875 633.458 140.531C633.375 140.448 633.505 140.292 633.599 140.37Z" fill="#C69157"/>
<path d="M654.047 118.979C655.052 120.401 656.109 121.734 657.489 122.818C658.859 123.885 660.432 124.667 662.052 125.255C662.146 125.286 662.094 125.411 662.005 125.391C658.641 124.693 655.349 122.234 653.937 119.052C653.906 118.984 654 118.911 654.047 118.979Z" fill="#C69157"/>
<path d="M668.411 117.333C671.974 120.109 676.01 121.87 680.411 122.797C685.469 123.865 690.661 123.875 695.791 124.203C704.969 124.792 714 126.865 722.474 130.443C724.739 131.401 726.958 132.458 729.125 133.615C731.328 134.792 733.76 135.979 735.614 137.672C735.666 137.719 735.604 137.818 735.536 137.786C733.526 136.875 731.687 135.536 729.745 134.474C727.625 133.307 725.453 132.245 723.239 131.276C718.979 129.417 714.552 127.922 710.036 126.818C705.349 125.672 700.573 124.979 695.765 124.672C690.713 124.354 685.609 124.328 680.63 123.323C676.187 122.427 671.557 120.734 668.37 117.38C668.344 117.354 668.385 117.307 668.411 117.333Z" fill="#C69157"/>
<path d="M759.765 67.4895C754.5 69.2499 749.943 72.8488 747.505 77.9061C744.765 83.5884 744.437 90.1665 746.505 96.1145C748.474 101.781 752.307 107.13 752.104 113.354C751.89 119.823 748.015 125.51 747.271 131.896C746.818 135.818 747.005 139.818 747.906 143.646C747.87 143.5 747.828 143.354 747.791 143.213C746.859 139.583 746.583 135.864 746.104 132.161C745.604 128.312 744.932 124.474 743.318 120.917C741.745 117.463 739.177 114.677 736.338 112.224C731.146 107.739 723.437 103.146 722.812 95.5259C722.536 92.1822 723.776 88.7603 726.125 86.3645C728.635 83.802 732.755 82.3593 736.187 83.8645C739.635 85.3801 741.661 89.6718 739.198 92.9322C738.047 94.4634 736.125 95.2915 734.26 94.6926C732.234 94.0415 730.672 92.2238 730.771 90.0415C730.781 89.7968 730.385 89.7343 730.344 89.979C729.76 93.3072 732.781 96.453 736.109 96.2447C739.693 96.0207 742.437 92.4218 742.297 88.9322C742.135 85.0624 738.969 81.8488 735.281 81.0832C731.088 80.2134 726.651 82.0415 723.89 85.2343C721.323 88.203 719.984 92.229 720.469 96.1509C720.989 100.359 723.453 103.953 726.375 106.896C729.469 110.01 733.151 112.443 736.318 115.469C739.687 118.698 741.745 122.484 742.786 127.031C743.901 131.917 744.036 136.963 745.088 141.859C746.01 146.135 747.609 150.958 751.594 153.255C751.849 153.401 752.146 153.109 751.995 152.854C751.781 152.479 751.562 152.099 751.354 151.724C751.427 151.667 751.469 151.568 751.422 151.463C748.859 146.078 747.927 139.463 749.156 133.599C749.786 130.568 750.568 127.646 751.614 124.729C752.63 121.896 753.734 119.057 754.234 116.078C754.734 113.099 754.562 110.156 753.698 107.266C752.885 104.562 751.64 102.016 750.479 99.453C749.291 96.8332 748.198 94.1457 747.76 91.2811C747.297 88.2238 747.536 85.0468 748.401 82.078C750.125 76.1509 754.505 70.7447 759.885 67.7811C760.036 67.6978 759.932 67.4322 759.765 67.4895Z" fill="#C69157"/>
<path d="M775.521 96.3702C773.146 93.74 769.38 92.3962 765.885 92.9222C758.599 94.0264 754.708 104.021 760.161 109.401C761.724 110.948 764.021 111.891 766.208 111.282C768.141 110.74 769.807 109.094 770.083 107.068C770.328 105.25 769.302 103.61 767.667 102.844C766.099 102.105 764.172 102.24 763.531 104.052C763.417 104.375 763.781 104.745 764.109 104.625C765.177 104.245 766.573 104.282 767.474 105.042C768.812 106.172 768.083 107.995 766.844 108.881C763.609 111.198 760.099 107.36 759.599 104.292C759.125 101.381 760.385 98.2295 762.646 96.3702C765.036 94.4066 768.427 94.292 771.172 95.5472C774.344 96.99 776.266 99.99 776.385 103.469C776.526 107.448 774.719 111.073 772.161 114.011C767.104 119.818 759.979 123.375 755.589 129.834C751.24 136.224 749.635 144.558 751.589 152.068C751.698 152.485 752.312 152.308 752.229 151.891C750.469 143.245 752.807 133.901 758.984 127.506C765.245 121.021 774.807 117.136 777.599 107.834C778.771 103.938 778.318 99.4743 775.521 96.3702Z" fill="#C69157"/>
<path d="M712.177 81.6511C711.766 82.3646 711.464 83.0365 710.526 83.0938C709.49 83.1511 708.526 82.4063 707.964 81.5938C706.901 80.0417 706.859 77.9636 707.938 76.4167C708.875 75.0678 710.714 74.1146 712.307 74.8907C713.51 75.4792 713.344 76.9428 712.354 77.6876C711.177 78.5626 710.005 77.9896 708.771 77.698C708.672 77.6771 708.594 77.7969 708.672 77.8751C710.568 79.7188 714.662 78.2396 713.974 75.323C713.266 72.3334 709.271 73.2188 707.573 74.6198C705.005 76.7396 704.563 80.6094 706.646 83.224C707.703 84.5521 709.417 85.4896 711.146 85.1719C712.547 84.9115 714.047 83.6823 714.016 82.1511C714 81.1823 712.677 80.7865 712.177 81.6511Z" fill="#C69157"/>
<path d="M771.99 75.4686C771.094 74.8956 769.891 74.7967 769.047 75.4894C768.984 75.5415 769.052 75.6561 769.125 75.63C770.635 75.0883 772.214 75.9581 772.521 77.5623C772.823 79.1613 771.99 80.9373 770.708 81.8852C769.495 82.7811 767.401 82.8904 766.552 81.3956C766.214 80.7967 766.214 80.005 766.552 79.4061C766.745 79.0623 767.042 78.7394 767.453 78.7029C767.865 78.4998 768.083 78.7185 768.109 79.354C767.953 79.4269 767.792 79.4738 767.62 79.4998C767.51 79.4998 767.448 79.604 767.469 79.7029C767.677 80.755 769.005 80.4217 769.307 79.5936C769.75 78.3488 768.427 77.4321 767.318 77.6404C766.099 77.8696 765.328 79.0831 765.287 80.2654C765.24 81.6352 766.083 82.7758 767.328 83.2758C770.26 84.4529 773.078 81.7133 773.401 78.8956C773.542 77.6196 773.109 76.1873 771.99 75.4686Z" fill="#C69157"/>
<path d="M786.099 116.016C785.166 115.021 783.219 115.495 783.234 116.985C783.239 117.323 783.713 117.578 783.958 117.287C784.156 117.042 784.406 116.667 784.729 116.589C785.172 116.479 785.604 116.875 785.599 117.318C785.588 118.156 784.505 118.328 783.88 118.261C783.13 118.182 782.312 117.797 781.885 117.146C781.411 116.417 781.578 115.412 782.354 114.969C782.635 114.807 782.385 114.396 782.104 114.537C780.916 115.13 780.719 116.677 781.453 117.708C782.265 118.854 784.015 119.401 785.323 118.88C786.526 118.401 787.047 117.031 786.099 116.016Z" fill="#C69157"/>
<path d="M733.474 117.489C732.583 116.307 730.76 116.307 729.932 117.552C729.828 117.708 730.052 117.859 730.182 117.745C732.198 115.948 734.24 119.406 731.963 120.599C731.141 121.031 730.172 120.875 729.437 120.333C729.198 120.161 728.708 119.765 728.651 119.474C728.552 118.958 728.823 119.125 729.115 119.078C729.26 119.057 729.417 118.896 729.443 118.755C729.448 118.724 729.453 118.698 729.458 118.666C729.505 118.411 729.432 118.109 729.177 117.979C728.63 117.693 727.963 117.75 727.557 118.265C727.042 118.916 727.344 119.812 727.781 120.411C728.838 121.864 730.927 122.474 732.516 121.552C733.927 120.734 734.495 118.844 733.474 117.489Z" fill="#C69157"/>
<path d="M710.406 106.031C710.344 105.813 710.234 105.62 710.078 105.464C709.99 105.396 709.901 105.328 709.818 105.261C709.62 105.146 709.401 105.089 709.172 105.089C708.995 105.078 708.828 105.115 708.677 105.198C708.521 105.25 708.38 105.339 708.266 105.464C708.141 105.578 708.052 105.714 708 105.875C707.922 106.026 707.885 106.193 707.891 106.37L707.938 106.708C708 106.927 708.109 107.115 708.266 107.276C708.354 107.344 708.438 107.412 708.526 107.479C708.724 107.594 708.938 107.651 709.172 107.651C709.349 107.662 709.51 107.625 709.661 107.542C709.823 107.49 709.958 107.401 710.078 107.276C710.203 107.162 710.286 107.021 710.339 106.865C710.422 106.708 710.458 106.547 710.453 106.37C710.438 106.255 710.422 106.141 710.406 106.031Z" fill="#C69157"/>
<path d="M741.286 108.703C741.292 108.672 741.292 108.641 741.297 108.615C741.307 108.547 741.312 108.479 741.323 108.417C741.328 108.245 741.292 108.083 741.219 107.937C741.167 107.781 741.083 107.651 740.958 107.536C740.849 107.417 740.714 107.328 740.562 107.281C740.411 107.203 740.255 107.167 740.083 107.172C739.911 107.167 739.755 107.203 739.604 107.281C739.453 107.328 739.318 107.417 739.208 107.536C739.141 107.62 739.078 107.703 739.01 107.786C738.901 107.984 738.844 108.193 738.844 108.417C738.859 108.526 738.875 108.635 738.891 108.745C738.948 108.958 739.052 109.141 739.208 109.297C739.292 109.359 739.375 109.427 739.458 109.49C739.599 109.578 739.755 109.63 739.917 109.635C740.083 109.672 740.25 109.667 740.411 109.615C740.422 109.615 740.427 109.609 740.432 109.609C740.448 109.604 740.458 109.604 740.474 109.599C740.667 109.547 740.833 109.448 740.974 109.307C741.115 109.167 741.208 109 741.266 108.807C741.266 108.797 741.271 108.781 741.271 108.766C741.276 108.76 741.276 108.755 741.281 108.745C741.281 108.734 741.281 108.719 741.286 108.703Z" fill="#C69157"/>
<path d="M737.281 89.1877C737.239 89.0314 737.161 88.896 737.047 88.7866C736.984 88.7345 736.922 88.6877 736.859 88.6408C736.719 88.5575 736.568 88.5158 736.401 88.5158C736.276 88.5106 736.161 88.5366 736.052 88.5939C735.937 88.6304 735.838 88.6929 735.755 88.7866C735.667 88.87 735.604 88.9637 735.568 89.0783C735.51 89.1877 735.484 89.3022 735.489 89.4325L735.521 89.672C735.568 89.8283 735.646 89.9637 735.755 90.0783C735.818 90.1252 735.88 90.172 735.943 90.2189C736.083 90.3022 736.239 90.3439 736.401 90.3439C736.526 90.3491 736.646 90.3231 736.755 90.2658C736.864 90.2293 736.963 90.1668 737.047 90.0783C737.135 89.995 737.198 89.896 737.234 89.7814C737.292 89.672 737.318 89.5575 737.312 89.4325C737.302 89.3491 737.292 89.2658 737.281 89.1877Z" fill="#C69157"/>
<path d="M743.859 66.1514C743.703 66.0107 743.51 65.917 743.292 65.917C743.088 65.917 742.87 66.0107 742.724 66.1514C742.583 66.292 742.479 66.5212 742.489 66.7243C742.5 66.9274 742.568 67.1462 742.724 67.292C742.88 67.4326 743.073 67.5264 743.292 67.5264C743.495 67.5264 743.713 67.4378 743.859 67.292C744 67.1514 744.104 66.9222 744.094 66.7243C744.083 66.516 744.016 66.2972 743.859 66.1514Z" fill="#C69157"/>
<path d="M760.104 56.901C760.015 56.7395 759.901 56.6145 759.75 56.5156C759.62 56.3958 759.469 56.3176 759.292 56.2708C758.989 56.2031 758.719 56.1822 758.417 56.2708C758.307 56.3176 758.198 56.3645 758.094 56.4062C757.932 56.4947 757.807 56.6093 757.708 56.7603C757.625 56.8437 757.568 56.9426 757.536 57.0624C757.448 57.2239 757.411 57.3958 757.417 57.5833C757.427 57.8281 757.489 58.0572 757.604 58.276C757.76 58.5729 758.099 58.802 758.417 58.901C758.489 58.9218 758.557 58.9322 758.635 58.9374C758.708 58.9478 758.781 58.9531 758.854 58.9635C758.995 58.9635 759.151 58.9322 759.292 58.8958C759.401 58.8541 759.505 58.8072 759.614 58.7603C759.771 58.677 759.901 58.5572 759.995 58.4114C760.078 58.3281 760.135 58.2239 760.172 58.1093C760.255 57.9479 760.292 57.7708 760.286 57.5833C760.276 57.3437 760.213 57.1093 760.104 56.901Z" fill="#C69157"/>
<path d="M735.969 55.3127C735.839 55.1877 735.672 55.1147 735.49 55.1147C735.318 55.1147 735.136 55.1877 735.011 55.3127C734.896 55.4272 734.808 55.62 734.813 55.7918C734.823 55.9689 734.88 56.1512 735.011 56.271C735.146 56.3908 735.308 56.4689 735.49 56.4689C735.662 56.4689 735.844 56.396 735.969 56.271C736.089 56.1512 736.177 55.9585 736.167 55.7918C736.162 55.6147 736.104 55.4325 735.969 55.3127Z" fill="#C69157"/>
<path d="M727.531 77.3229L726.333 72.5677C726.156 71.8594 725.578 71.3333 724.859 71.224L722.25 70.8385L724.781 69.901C725.448 69.6615 725.906 69.0469 725.953 68.3385L726.286 63.4062L727.479 68.1615C727.656 68.8698 728.24 69.401 728.958 69.5052L731.625 69.8906L729.042 70.8333C728.37 71.0729 727.911 71.6927 727.859 72.401L727.531 77.3229Z" fill="#C69157"/>
<path d="M720.901 117.563L719.828 113.297C719.672 112.667 719.146 112.193 718.505 112.094L716.167 111.745L718.432 110.912C719.031 110.693 719.443 110.141 719.484 109.505L719.781 105.083L720.854 109.349C721.01 109.985 721.536 110.458 722.182 110.552L724.573 110.901L722.255 111.745C721.656 111.958 721.239 112.511 721.198 113.151L720.901 117.563Z" fill="#C69157"/>
<path d="M787.364 94.6927L787.422 90.2917C787.427 89.6406 787.047 89.0469 786.448 88.7865L784.276 87.849L786.687 87.625C787.318 87.5677 787.854 87.1406 788.057 86.5365L789.479 82.3438L789.422 86.7396C789.411 87.3906 789.797 87.9844 790.396 88.2396L792.62 89.1927L790.161 89.4115C789.526 89.4687 788.984 89.8958 788.781 90.5L787.364 94.6927Z" fill="#C69157"/>
<path d="M754.203 94.0833L753.62 91.7552C753.531 91.4115 753.245 91.151 752.896 91.099L751.62 90.9115L752.859 90.4531C753.182 90.3333 753.406 90.0365 753.432 89.6875L753.594 87.2812L754.177 89.6042C754.26 89.9479 754.547 90.2083 754.901 90.2604L756.203 90.4479L754.937 90.9062C754.614 91.026 754.385 91.3281 754.364 91.6771L754.203 94.0833Z" fill="#C69157"/>
<path d="M769.463 96.7241C769.463 97.1408 769.13 97.4793 768.713 97.4793C768.297 97.4793 767.963 97.1408 767.963 96.7241C767.963 96.3075 768.297 95.9741 768.713 95.9741C769.13 95.9741 769.463 96.3075 769.463 96.7241Z" fill="#C69157"/>
<path d="M794.12 71.1668C794.12 71.3075 794.005 71.422 793.865 71.422C793.724 71.422 793.609 71.3075 793.609 71.1668C793.609 71.0262 793.724 70.9116 793.865 70.9116C794.005 70.9116 794.12 71.0262 794.12 71.1668Z" fill="#C69157"/>
<path d="M774.036 67.7396C774.036 68.0781 773.766 68.3542 773.427 68.3542C773.089 68.3542 772.812 68.0781 772.812 67.7396C772.812 67.401 773.089 67.125 773.427 67.125C773.766 67.125 774.036 67.401 774.036 67.7396Z" fill="#C69157"/>
<path d="M757.828 77.6615C757.828 77.8906 757.646 78.0729 757.417 78.0729C757.193 78.0729 757.005 77.8906 757.005 77.6615C757.005 77.4323 757.193 77.25 757.417 77.25C757.646 77.25 757.828 77.4323 757.828 77.6615Z" fill="#C69157"/>
<path d="M712.203 99.1616C712.203 99.5106 711.922 99.7918 711.573 99.7918C711.229 99.7918 710.948 99.5106 710.948 99.1616C710.948 98.8179 711.229 98.5366 711.573 98.5366C711.922 98.5366 712.203 98.8179 712.203 99.1616Z" fill="#C69157"/>
<path d="M760.182 122.557C760.182 122.953 759.86 123.271 759.469 123.271C759.073 123.271 758.755 122.953 758.755 122.557C758.755 122.161 759.073 121.844 759.469 121.844C759.86 121.844 760.182 122.161 760.182 122.557Z" fill="#C69157"/>
<path d="M716.86 86.818C716.86 87.2035 716.552 87.516 716.167 87.516C715.781 87.516 715.474 87.2035 715.474 86.818C715.474 86.4326 715.781 86.1201 716.167 86.1201C716.552 86.1201 716.86 86.4326 716.86 86.818Z" fill="#C69157"/>
<path d="M762.156 89.4012C762.156 89.6668 761.948 89.8804 761.682 89.8804C761.422 89.8804 761.208 89.6668 761.208 89.4012C761.208 89.1408 761.422 88.9272 761.682 88.9272C761.948 88.9272 762.156 89.1408 762.156 89.4012Z" fill="#C69157"/>
<path d="M784.625 108.193C784.625 108.646 784.26 109.016 783.807 109.016C783.354 109.016 782.984 108.646 782.984 108.193C782.984 107.735 783.354 107.37 783.807 107.37C784.26 107.37 784.625 107.735 784.625 108.193Z" fill="#C69157"/>
<path d="M767.875 126.854C767.875 127.104 767.677 127.302 767.427 127.302C767.177 127.302 766.974 127.104 766.974 126.854C766.974 126.604 767.177 126.401 767.427 126.401C767.677 126.401 767.875 126.604 767.875 126.854Z" fill="#C69157"/>
<path d="M780.542 89.4323C780.542 89.7031 780.323 89.9271 780.052 89.9271C779.776 89.9271 779.557 89.7031 779.557 89.4323C779.557 89.1563 779.776 88.9375 780.052 88.9375C780.323 88.9375 780.542 89.1563 780.542 89.4323Z" fill="#C69157"/>
<path d="M746.182 100.943C746.182 101.151 746.011 101.318 745.802 101.318C745.599 101.318 745.427 101.151 745.427 100.943C745.427 100.735 745.599 100.568 745.802 100.568C746.011 100.568 746.182 100.735 746.182 100.943Z" fill="#C69157"/>
<mask id="mask6_1247_1666" style="mask-type:luminance" maskUnits="userSpaceOnUse" x="755" y="47" width="3" height="2">
<path d="M755.333 47.9375H758V49H755.333V47.9375Z" fill="white"/>
</mask>
<g mask="url(#mask6_1247_1666)">
<path d="M757.38 48.3125C757.38 48.5208 757.214 48.6927 757.005 48.6927C756.797 48.6927 756.63 48.5208 756.63 48.3125C756.63 48.1094 756.797 47.9375 757.005 47.9375C757.214 47.9375 757.38 48.1094 757.38 48.3125Z" fill="#C69157"/>
</g>
<path d="M832.224 100.448L829.87 96.7295C829.521 96.1826 828.88 95.8962 828.24 96.0055L825.906 96.4118L827.802 94.9014C828.297 94.5055 828.516 93.8545 828.359 93.2399L827.255 88.9482L829.604 92.6618C829.958 93.2087 830.604 93.4951 831.245 93.3857L833.625 92.9639L831.688 94.4899C831.188 94.8857 830.964 95.542 831.125 96.1618L832.224 100.448Z" fill="#C69157"/>
<path d="M664.562 89.6356L664.937 85.2554C664.995 84.6043 664.656 83.9845 664.078 83.6825L661.979 82.5887L664.396 82.5418C665.031 82.5262 665.599 82.1408 665.849 81.5575L667.568 77.4741L667.193 81.8543C667.135 82.5054 667.479 83.1252 668.057 83.4272L670.203 84.5366L667.739 84.5783C667.099 84.5835 666.526 84.9741 666.281 85.5627L664.562 89.6356Z" fill="#C69157"/>
<path d="M825.677 85.354C825.615 85.1926 825.427 85.2134 825.287 85.2186C825.063 85.229 824.906 85.4478 824.995 85.6613C825.078 85.8488 825.365 85.9426 825.511 85.7655C825.604 85.6509 825.75 85.5155 825.677 85.354Z" fill="#C69157"/>
<path d="M832.083 80.4639C832.078 80.4482 832.078 80.4326 832.073 80.417C832.021 80.2139 831.917 80.042 831.771 79.8962V79.891C831.765 79.8857 831.76 79.8753 831.75 79.8701C831.719 79.8337 831.677 79.8024 831.635 79.7764C831.526 79.6774 831.396 79.6097 831.245 79.5732C831.052 79.5212 830.833 79.5212 830.635 79.5732C830.281 79.6722 830.448 79.6357 830.359 79.693C830.281 79.7555 830.203 79.8128 830.125 79.8753L830.12 79.8805C830.052 79.9587 829.989 80.0368 829.932 80.1201C829.875 80.2087 829.844 80.3128 829.807 80.417C829.75 80.6253 829.75 80.8337 829.807 81.042C829.864 81.2399 829.963 81.4118 830.109 81.5628C830.182 81.6305 830.265 81.693 830.349 81.7451C830.484 81.8337 830.63 81.8805 830.786 81.8857C830.859 81.8962 830.896 81.9066 830.948 81.9066C831.146 81.917 831.375 81.8441 831.547 81.7503C831.63 81.6982 831.713 81.6357 831.786 81.5628C831.969 81.3753 831.984 81.292 832.083 81.0576C832.135 80.8597 832.135 80.6618 832.083 80.4639Z" fill="#C69157"/>
<path d="M825.109 100.234C824.859 100.125 824.464 100.203 824.339 100.49C824.266 100.667 824.188 100.807 824.214 101.005C824.24 101.182 824.323 101.307 824.432 101.437C824.547 101.573 824.75 101.604 824.912 101.562C825.031 101.536 825.193 101.464 825.276 101.37C825.385 101.255 825.438 101.115 825.469 100.964C825.537 100.661 825.406 100.359 825.109 100.234Z" fill="#C69157"/>
<path d="M835.979 71.5157C835.839 69.948 834.469 68.8073 832.958 68.698C832.891 68.6927 832.885 68.7917 832.943 68.8125C834.714 69.3959 836.281 71.3855 834.938 73.1771C834.38 73.9167 833.344 74.1927 832.49 73.8073C831.995 73.5834 831.568 73.1407 831.542 72.5677C831.505 71.8125 832.339 71.125 832.927 71.8282C833.224 72.1823 833.734 71.6667 833.438 71.3125C832.563 70.2657 830.953 70.9636 830.813 72.2292C830.635 73.7969 832.208 74.8698 833.641 74.6771C835.161 74.4688 836.115 72.9948 835.979 71.5157Z" fill="#C69157"/>
<path d="M841.479 98.7242C840.636 97.5732 839.167 97.0628 837.813 97.4846C837.656 97.5367 837.719 97.7555 837.875 97.7294C839.735 97.3909 841.531 98.844 841.188 100.802C841.042 101.63 840.464 102.547 839.594 102.75C839.031 102.886 838.287 102.709 838.375 102C838.401 101.782 838.521 101.485 838.604 101.276C838.656 101.157 838.552 101.016 838.443 100.985C837.125 100.61 837.094 102.594 837.735 103.282C838.797 104.407 840.615 103.599 841.365 102.537C842.136 101.448 842.292 99.8388 841.479 98.7242Z" fill="#C69157"/>
<path d="M673.161 97.177C672.713 95.776 670.875 95.5051 669.844 96.4062C669.281 96.8958 670.036 97.901 670.651 97.453C671.307 96.9791 672.375 97.2395 672.375 98.1874C672.38 99.5468 670.713 99.8489 669.755 99.302C667.583 98.0572 668.698 95.302 669.448 93.5833C669.489 93.4895 669.375 93.3749 669.292 93.4635C668.172 94.677 667.552 96.4739 668.078 98.0989C668.531 99.5103 669.979 100.62 671.5 100.219C672.771 99.8853 673.562 98.427 673.161 97.177Z" fill="#C69157"/>
<path d="M662.474 69.2971C661.078 69.1617 659.917 70.4221 659.859 71.7763C659.802 73.2138 661.078 74.594 662.51 74.594C662.594 74.594 662.641 74.4586 662.557 74.4169C661.724 74.0471 660.891 73.5784 660.573 72.6669C660.234 71.6982 660.614 70.5315 661.562 70.0627C662.516 69.594 664.12 70.4013 663.864 71.594C663.651 72.5992 662.614 72.6044 661.818 72.5784C661.453 72.5627 661.271 73.0471 661.521 73.2971C662.568 74.344 664.234 73.2138 664.552 72.0211C664.901 70.7086 663.75 69.4169 662.474 69.2971Z" fill="#C69157"/>
<path d="M660.677 95.7708C660.614 95.7864 660.557 95.8176 660.5 95.8437C660.437 95.8801 660.385 95.927 660.349 95.9947C660.312 96.0572 660.292 96.1301 660.292 96.2031C660.297 96.3176 660.333 96.4218 660.417 96.5051C660.495 96.5781 660.604 96.6249 660.713 96.6249C660.792 96.6249 660.859 96.6093 660.927 96.5676C660.989 96.5312 661.042 96.4791 661.078 96.4166C661.099 96.3593 661.13 96.302 661.151 96.2447C661.234 95.9687 660.953 95.6822 660.677 95.7708Z" fill="#C69157"/>
<path d="M673.208 86.3699C673.12 86.2605 673.026 86.2085 672.896 86.1564L672.88 86.146C672.755 86.0991 672.542 86.1355 672.432 86.2085C672.307 86.2866 672.208 86.4012 672.167 86.5522C672.167 86.5574 672.167 86.5678 672.161 86.573C672.104 86.8074 672.187 87.0574 672.375 87.2033C672.557 87.3439 672.838 87.3803 673.042 87.2501C673.213 87.1355 673.333 86.9481 673.333 86.7345C673.333 86.5991 673.286 86.4741 673.208 86.3699Z" fill="#C69157"/>
<path d="M665.964 63.9116C665.964 63.8803 665.964 63.8543 665.953 63.8283C665.932 63.7605 665.896 63.7189 665.839 63.6772C665.818 63.6616 665.797 63.646 665.776 63.6355C665.734 63.6043 665.672 63.5991 665.625 63.6043C665.573 63.6095 665.521 63.6303 665.484 63.672C665.453 63.7033 665.432 63.7397 665.422 63.7814C665.401 63.8335 665.412 63.922 665.443 63.9689C665.458 63.9897 665.474 64.0053 665.49 64.0262C665.526 64.0783 665.573 64.1303 665.641 64.146C665.667 64.1512 665.693 64.1512 665.719 64.1512C665.865 64.1928 666 64.0574 665.964 63.9116Z" fill="#C69157"/>
<path d="M686.672 86.1823C686.656 86.1667 686.646 86.151 686.635 86.1354C686.411 85.7917 685.838 85.9062 685.838 86.349C685.844 86.7917 686.406 86.9115 686.635 86.5677C686.646 86.5521 686.656 86.5312 686.672 86.5156C686.729 86.4219 686.729 86.276 686.672 86.1823Z" fill="#C69157"/>
<path d="M683.463 89.9947C683.401 90.0364 683.443 90.1301 683.516 90.1145C684.708 89.8333 686.062 90.7343 685.63 92.0728C685.479 92.5416 684.885 93.1562 684.328 92.9166C683.812 92.6926 684.125 92.2239 683.984 91.8333C683.943 91.7187 683.828 91.5937 683.687 91.6093C682.739 91.7083 683.052 93.026 683.552 93.4739C684.312 94.1562 685.489 93.7603 686.021 92.9947C687.193 91.3072 685.333 88.8541 683.463 89.9947Z" fill="#C69157"/>
<path d="M814.005 87.9636C812.724 86.672 810.542 87.3126 810.177 89.1095C809.787 91.0365 811.563 92.1303 813.281 91.9688C813.578 91.9376 813.906 91.6563 813.776 91.3126C813.641 90.9688 813.495 90.6407 813.328 90.3074C813.245 90.1355 813.037 90.0313 812.849 90.0313C812.604 90.0365 812.521 90.1095 812.375 90.3074C812.255 90.4688 812.292 90.698 812.375 90.8647C812.432 90.9792 812.495 91.0938 812.552 91.2084C811.563 91.4167 810.651 90.2449 810.833 89.2397C811.089 87.823 812.74 87.4324 813.818 88.2136C813.964 88.3178 814.13 88.0886 814.005 87.9636Z" fill="#C69157"/>
<path d="M815.766 82.953C815.636 82.8176 815.417 82.7186 815.224 82.7238C815.026 82.7342 814.823 82.802 814.682 82.953C814.542 83.104 814.469 83.2811 814.458 83.4947C814.458 83.552 814.464 83.6145 814.464 83.6717C814.469 83.8697 814.542 84.0676 814.688 84.2134C814.818 84.3436 815.037 84.4426 815.224 84.4374C815.651 84.4165 815.974 84.0988 815.99 83.6717C815.99 83.6145 815.995 83.552 815.99 83.4947C815.979 83.2915 815.912 83.0988 815.766 82.953Z" fill="#C69157"/>
<path d="M821.271 71.292C821.255 71.2451 821.229 71.2087 821.198 71.1774L821.161 71.1253C821.114 71.068 821.026 71.0264 820.953 71.0264C820.875 71.0316 820.791 71.0628 820.745 71.1253C820.729 71.1462 820.719 71.1618 820.708 71.1774C820.666 71.2295 820.635 71.2712 820.614 71.3337C820.594 71.4066 820.604 71.4899 820.635 71.5576C820.687 71.6826 820.812 71.7816 820.953 71.7712C821.073 71.766 821.187 71.7087 821.255 71.5993C821.291 71.5316 821.302 71.4535 821.291 71.3805C821.291 71.3493 821.286 71.318 821.271 71.292Z" fill="#C69157"/>
<path d="M650.672 101.031C650.666 101 650.661 100.985 650.661 100.979C650.682 100.787 650.568 100.584 650.406 100.495C650.318 100.443 650.203 100.511 650.203 100.615C650.198 100.683 650.193 100.755 650.203 100.823C650.203 100.828 650.198 100.849 650.193 100.87C650.088 100.948 650.036 101.073 649.932 101.156C649.828 101.24 649.693 101.297 649.568 101.318C649.521 101.323 649.474 101.323 649.427 101.323C649.291 101.323 649.219 101.339 649.135 101.396C649.088 101.349 649.052 101.302 649.021 101.24C648.969 101.13 648.797 101.203 648.833 101.318C648.875 101.469 649 101.584 649.026 101.729C649.036 101.828 649.151 101.943 649.255 101.959C649.698 102.026 650.166 101.875 650.479 101.542C650.552 101.459 650.646 101.349 650.672 101.24C650.693 101.172 650.687 101.094 650.672 101.031Z" fill="#C69157"/>
<path d="M852.719 108.563C852.703 108.5 852.682 108.438 852.651 108.386C852.568 108.24 852.391 108.099 852.214 108.068C852.182 108.037 852.146 108.021 852.099 108.026C852.037 108.032 851.995 108.047 851.953 108.068C851.938 108.073 851.927 108.078 851.912 108.084C851.589 108.188 851.344 108.542 851.453 108.891C851.537 109.136 851.797 109.375 852.073 109.381C852.13 109.407 852.188 109.433 852.255 109.453C852.516 109.532 852.833 109.36 852.896 109.089C852.948 108.865 852.87 108.688 852.719 108.563Z" fill="#C69157"/>
<path d="M89.9884 158.594C103.759 158.594 117.306 146.058 117.306 133.183C117.306 123.219 107.228 109.782 94.577 105.193C83.6082 101.162 74.8739 92.2035 74.8739 86.1618C74.8739 77.318 81.0301 68.5837 87.4155 68.5837C91.2176 68.5837 95.8114 70.4847 99.8426 73.2868C101.072 74.516 106.108 80.1149 110.926 85.5993L111.707 86.4951H113.16V74.292H112.603L112.488 75.5264C112.379 76.7555 110.139 76.4222 107.791 74.8545C102.301 70.5993 94.1291 67.3545 87.4155 67.3545C75.0978 67.3545 63.1187 79.443 63.1187 91.8701C63.1187 102.391 73.0822 116.276 85.5093 120.756C96.4832 124.782 105.212 132.62 105.212 137.433C105.212 147.287 97.7124 157.026 89.9884 157.026C85.7332 157.026 80.0249 153.891 75.0978 149.412C78.0093 151.99 72.6343 145.162 64.1291 135.417L63.3426 134.526L61.7749 134.75V151.094H62.3374L62.4468 148.854C62.5614 146.391 65.6968 146.615 68.827 149.078C74.9884 154.563 83.3843 158.594 89.9884 158.594Z" fill="#C69157"/>
<path d="M118.303 157.474H138.678V157.141H137.225C133.194 157.141 130.845 151.542 132.522 145.943L139.126 123.105H168.121L175.85 146.948C177.079 152.323 174.954 157.141 171.147 157.141H169.689L169.579 157.474H199.918V157.141H199.137C197.006 157.141 193.09 151.542 191.183 145.943L164.652 66.3442H163.084C163.532 69.0317 158.048 72.5005 151.892 73.3963L152.225 74.5161C145.173 98.3651 138.23 122.209 131.069 145.943C129.387 151.652 123.788 157.141 119.762 157.141H118.303V157.474ZM139.465 121.875L152.788 75.9744L167.673 121.875H139.465Z" fill="#C69157"/>
<path d="M209.538 157.475H224.647V116.277H235.282C238.084 121.652 247.152 136.537 256.22 150.308C260.027 156.131 265.85 157.475 286.897 157.475C280.288 157.475 277.829 156.131 274.022 150.308C264.058 134.975 254.204 119.969 250.397 114.146C261.704 110.678 270.324 103.178 270.324 93.8861C270.324 81.1204 253.423 68.584 236.069 68.584H209.538V157.475ZM224.647 112.469V71.6048H231.59C242.673 71.6048 253.647 81.1204 253.647 90.86C253.647 103.402 244.913 112.469 236.069 112.469H224.647Z" fill="#C69157"/>
<path d="M284.644 157.474H305.019V157.141H303.565C299.534 157.141 297.185 151.542 298.862 145.943L305.466 123.105H334.461L342.19 146.948C343.42 152.323 341.295 157.141 337.487 157.141H336.029L335.92 157.474H366.258V157.141H365.477C363.347 157.141 359.43 151.542 357.524 145.943L330.993 66.3442H329.425C329.873 69.0317 324.388 72.5005 318.232 73.3963L318.565 74.5161C311.513 98.3651 304.571 122.209 297.409 145.943C295.727 151.652 290.128 157.141 286.102 157.141H284.644V157.474ZM305.805 121.875L319.128 75.9744L334.013 121.875H305.805Z" fill="#C69157"/>
<path d="M403.53 157.475H418.644V72.3913H438.347C443.16 72.3913 449.988 75.86 452.228 79.4434L453.123 80.7871H454.134L449.988 70.485H449.879V68.584H372.405L372.181 69.1413L371.733 70.485L372.405 68.8079V71.6048L368.712 80.7871H369.717L370.613 79.4434C372.853 75.86 379.681 72.3913 384.498 72.3913H403.53V157.475ZM450.884 70.485L450.436 69.1413C450.326 68.6934 450.326 68.584 450.103 68.584L450.884 70.485Z" fill="#C69157"/>
<path d="M469.567 157.475H484.682V112.136H522.75V157.475H537.859V68.584H522.75V110.902H484.682V68.584H469.567V157.475Z" fill="#C69157"/>
<path d="M556.435 157.475H571.544V68.584H556.435V157.475Z" fill="#C69157"/>
</svg>
