<svg width="375" height="351" viewBox="0 0 375 351" fill="none" xmlns="http://www.w3.org/2000/svg">
<path d="M66 57.24C66 37.4177 66 27.5065 69.7964 19.9088C73.2809 12.9351 78.9351 7.28095 85.9088 3.79639C93.5065 0 103.418 0 123.24 0H365.113C384.936 0 394.847 0 402.444 3.79639C409.418 7.28095 415.072 12.9351 418.557 19.9088C422.353 27.5065 422.353 37.4177 422.353 57.24V185.431C422.353 220.401 422.353 237.886 415.191 247.471C408.676 256.19 398.567 261.493 387.69 261.897C375.734 262.341 361.348 252.402 332.577 232.524L283.413 198.557C272.287 190.87 266.724 187.027 260.675 185.416C255.1 183.931 249.249 183.808 243.616 185.057C237.505 186.412 231.785 190.019 220.347 197.231L153.769 239.21C125.449 257.066 111.289 265.995 99.5978 265.213C88.9549 264.501 79.1756 259.106 72.897 250.483C66 241.01 66 224.271 66 190.791V57.24Z" fill="#F0D700" fill-opacity="0.56"/>
<path d="M-31 57.2399C-31 37.4177 -31 27.5065 -27.2036 19.9088C-23.7191 12.9351 -18.0649 7.28095 -11.0912 3.79639C-3.49345 0 6.4177 0 26.24 0L216.497 0C236.319 0 246.231 0 253.828 3.79639C260.802 7.28095 266.456 12.9351 269.941 19.9088C273.737 27.5065 273.737 37.4177 273.737 57.24V215.985C273.737 257.964 273.737 278.953 265.504 288.93C258.037 297.979 246.63 302.822 234.933 301.908C222.037 300.901 206.938 286.322 176.738 257.163L156.696 237.811C142.377 223.986 135.217 217.073 127.086 214.53C119.624 212.196 111.604 212.355 104.24 214.983C96.2165 217.846 89.3366 225.037 75.5767 239.42L67.6001 247.757C37.1372 279.599 21.9057 295.519 8.80582 296.912C-3.06602 298.174 -14.7913 293.469 -22.4971 284.35C-31 274.287 -31 252.254 -31 208.188V57.2399Z" fill="#3BC04B" fill-opacity="0.34"/>
</svg>
