<svg width="45" height="41" viewBox="0 0 45 41" fill="none" xmlns="http://www.w3.org/2000/svg">
<mask id="mask0_1243_1467" style="mask-type:luminance" maskUnits="userSpaceOnUse" x="9" y="32" width="28" height="7">
<path d="M9.88574 32.3589H36.5778V38.4204H9.88574V32.3589Z" fill="white"/>
</mask>
<g mask="url(#mask0_1243_1467)">
<path d="M23.206 32.3779C23.2048 32.3779 23.2039 32.3779 23.203 32.3779C23.2021 32.3779 23.2012 32.3779 23.2004 32.3779C23.1962 32.3779 23.1923 32.3779 23.1879 32.3779C16.2422 32.3779 11.465 33.9714 9.89355 35.3996C11.467 36.8202 16.2386 38.4088 23.1787 38.4217H23.2277C30.1674 38.4088 34.9393 36.8202 36.5128 35.3996C34.9414 33.9714 30.1642 32.3779 23.2182 32.3779C23.214 32.3779 23.2102 32.3779 23.206 32.3779Z" fill="#F0D700"/>
</g>
<mask id="mask1_1243_1467" style="mask-type:luminance" maskUnits="userSpaceOnUse" x="3" y="5" width="40" height="30">
<path d="M3.95508 5.60205H42.4532V34.4426H3.95508V5.60205Z" fill="white"/>
</mask>
<g mask="url(#mask1_1243_1467)">
<path d="M40.5386 18.1201C40.1905 18.5912 40.2416 18.9747 40.1447 19.4008C40.0916 19.6355 40.0316 19.9414 39.7707 20.311C39.7707 20.311 36.4075 25.9278 34.155 24.7255C30.8173 22.9434 32.6489 16.0182 32.6489 16.0182L32.9929 14.8035C33.1643 14.1978 33.6758 13.9484 33.8829 13.7444C34.2598 13.3748 34.3846 13.5016 34.608 12.7131C34.9698 11.4352 34.6311 9.18101 34.5218 8.70796C34.2013 8.978 32.8747 10.1601 32.5131 11.4376C32.2898 12.2266 32.5681 12.6858 32.6715 13.2819C32.7282 13.6103 32.8167 14.0341 32.6453 14.6392L32.3016 15.8539C32.3016 15.8539 30.2469 22.5077 27.1819 22.5518C23.4367 22.6059 23.423 12.7796 23.423 12.7796C23.423 12.0571 23.655 11.6549 23.8211 11.338C24.1232 10.761 24.5771 10.4168 24.5771 9.47499C24.5771 7.98929 23.5332 6.14786 23.229 5.64273V5.63315C23.2228 5.6231 23.2154 5.61017 23.21 5.60107C23.2094 5.60251 23.2082 5.60443 23.2074 5.60586C23.2062 5.6049 23.2053 5.60299 23.2044 5.60155C23.2035 5.60299 23.2026 5.6049 23.2017 5.60586C23.2008 5.60443 23.1996 5.60251 23.199 5.60107C23.1937 5.61017 23.186 5.6231 23.18 5.63315V5.64273C22.8758 6.14786 21.832 7.98929 21.832 9.47499C21.832 10.4168 22.2859 10.761 22.5877 11.338C22.7541 11.6549 22.9861 12.0571 22.9861 12.7796C22.9861 12.7796 22.9724 22.6059 19.2271 22.5518C16.1621 22.5077 14.1074 15.8539 14.1074 15.8539L13.7637 14.6392C13.5923 14.0341 13.6809 13.6103 13.7373 13.2819C13.8407 12.6858 14.1193 12.2266 13.8956 11.4376C13.5341 10.1601 12.2078 8.978 11.8873 8.70796C11.7779 9.18101 11.4393 11.4352 11.8011 12.7131C12.0245 13.5016 12.149 13.3748 12.5259 13.7444C12.7333 13.9484 13.2445 14.1978 13.4159 14.8035L13.7602 16.0182C13.7602 16.0182 15.5918 22.9434 12.2541 24.7255C10.0016 25.9278 6.63803 20.311 6.63803 20.311C6.37721 19.9414 6.31751 19.6355 6.26433 19.4008C6.16749 18.9747 6.21859 18.5912 5.87044 18.1201C5.2692 17.3066 4.18912 16.8221 3.96484 16.7364C4.02574 17.0816 4.48944 18.742 5.04018 19.521C5.3803 20.0022 5.69993 19.8413 5.9857 20.1243C9.18021 23.291 9.43419 34.3349 9.43419 34.3349H9.46152C9.90591 32.6481 15.8776 30.9378 23.1839 30.9369C23.1872 30.9369 23.2216 30.9369 23.2252 30.9369C30.5312 30.9378 36.5029 32.6481 36.947 34.3349H36.9749C36.9749 34.3349 37.2289 23.291 40.4231 20.1243C40.7088 19.8413 41.0288 20.0022 41.3689 19.521C41.9193 18.742 42.3833 17.0816 42.4439 16.7364C42.2197 16.8221 41.1396 17.3066 40.5386 18.1201Z" fill="#3BC04B"/>
</g>
</svg>
