<svg width="39" height="42" viewBox="0 0 39 42" fill="none" xmlns="http://www.w3.org/2000/svg">
<mask id="mask0_1243_1456" style="mask-type:luminance" maskUnits="userSpaceOnUse" x="1" y="2" width="35" height="17">
<path d="M1.64551 2.24756H35.2335V18.9284H1.64551V2.24756Z" fill="white"/>
</mask>
<g mask="url(#mask0_1243_1456)">
<path d="M2.30897 18.8608H18.4491V12.5894H19.7407V18.8608H34.5897C34.9458 18.8608 35.2353 18.5798 35.2353 18.2337V11.9623C35.2353 11.6162 34.9458 11.3353 34.5897 11.3353H31.7839C33.0519 10.1937 33.7685 8.52409 33.7685 7.41553C33.7685 5.70953 32.3479 3.71793 28.3478 3.71793C25.055 3.71793 21.5753 7.13839 19.5816 9.47229C20.2546 7.54331 21.8168 4.71479 23.2217 3.35152C23.4723 3.10696 23.4723 2.70923 23.2217 2.46467C22.9697 2.22011 22.5591 2.22011 22.3089 2.46467C20.945 3.78817 19.4308 6.33786 18.5965 8.45258C17.7596 6.33659 16.2453 3.7869 14.884 2.46467C14.6325 2.22011 14.2232 2.22011 13.9712 2.46467C13.7193 2.70923 13.7193 3.10696 13.9712 3.35152C15.3735 4.71394 16.9383 7.54204 17.61 9.47144C15.6163 7.13712 12.1379 3.71793 8.84384 3.71793C4.84367 3.71793 3.42311 5.70953 3.42311 7.41553C3.42311 8.52409 4.13971 10.1937 5.40772 11.3353H2.30766C1.9511 11.3353 1.66211 11.6162 1.66211 11.9623V18.2337C1.66342 18.5798 1.95241 18.8608 2.30897 18.8608ZM28.3478 4.97204C31.3925 4.97204 32.4774 6.23504 32.4774 7.41553C32.4774 8.61336 31.0451 11.3353 28.6834 11.3353H19.7006C22.2479 8.05528 25.7486 4.97204 28.3478 4.97204ZM4.71552 7.41553C4.71552 6.23504 5.80045 4.97204 8.84515 4.97204C11.4444 4.97204 14.945 8.05528 17.491 11.3353H8.50821C6.14917 11.3353 4.71552 8.61209 4.71552 7.41553Z" fill="#F0D700"/>
</g>
<mask id="mask1_1243_1456" style="mask-type:luminance" maskUnits="userSpaceOnUse" x="2" y="20" width="33" height="19">
<path d="M2.87305 20.0117H34.0061V38.9203H2.87305V20.0117Z" fill="white"/>
</mask>
<g mask="url(#mask1_1243_1456)">
<path d="M19.7402 20.1147V37.6748H18.4487V20.1147H2.9541V38.3019C2.9541 38.6471 3.2431 38.9294 3.59966 38.9294H33.2982C33.6543 38.9294 33.9437 38.6471 33.9437 38.3019V20.1147H19.7402Z" fill="#3BC04B"/>
</g>
</svg>
