<svg width="375" height="351" viewBox="0 0 375 351" fill="none" xmlns="http://www.w3.org/2000/svg">
<path d="M72 56.9823C72 37.16 72 27.2489 75.7964 19.6511C79.2809 12.6774 84.9351 7.02329 91.9088 3.53873C99.5065 -0.25766 109.418 -0.25766 129.24 -0.25766H371.113C390.936 -0.25766 400.847 -0.25766 408.444 3.53873C415.418 7.02329 421.072 12.6774 424.557 19.6511C428.353 27.2489 428.353 37.16 428.353 56.9823V185.173C428.353 220.144 428.353 237.629 421.191 247.213C414.676 255.932 404.567 261.235 393.69 261.639C381.734 262.084 367.348 252.144 338.577 232.266L289.413 198.299C278.287 190.612 272.724 186.769 266.675 185.158C261.1 183.673 255.249 183.55 249.616 184.799C243.505 186.155 237.785 189.761 226.347 196.973L159.769 238.952C131.449 256.809 117.289 265.737 105.598 264.955C94.9549 264.243 85.1756 258.849 78.897 250.225C72 240.753 72 224.013 72 190.533V56.9823Z" fill="#52D1F9"/>
<path d="M-28.8041 56.594C-29.2183 36.7761 -29.4253 26.8672 -25.7885 19.1917C-22.4504 12.1468 -16.9156 6.37573 -10.0163 2.74624C-2.49945 -1.20806 7.40954 -1.41512 27.2275 -1.82926L217.443 -5.80416C237.261 -6.21829 247.17 -6.42536 254.845 -2.78853C261.89 0.549569 267.661 6.08434 271.291 12.9837C275.245 20.5005 275.452 30.4095 275.866 50.2275L279.183 208.938C280.06 250.907 280.499 271.892 272.476 282.039C265.2 291.242 253.896 296.322 242.183 295.653C229.268 294.915 213.867 280.655 183.066 252.133L162.623 233.205C148.018 219.681 140.716 212.919 132.534 210.547C125.024 208.369 117.01 208.696 109.702 211.477C101.74 214.507 95.0118 221.841 81.5554 236.508L73.7548 245.01C43.9638 277.481 29.0683 293.716 16.0003 295.382C4.15743 296.892 -7.66365 292.433 -15.5583 283.477C-24.2695 273.594 -24.7298 251.566 -25.6505 207.509L-28.8041 56.594Z" fill="#C72FF8" fill-opacity="0.34"/>
</svg>
