<svg width="308" height="302" viewBox="0 0 308 302" fill="none" xmlns="http://www.w3.org/2000/svg">
<path d="M264.815 -188.343C281.33 -199.306 289.587 -204.787 298.017 -205.826C305.754 -206.78 313.592 -205.196 320.352 -201.313C327.717 -197.083 333.198 -188.826 344.161 -172.311L489.421 46.5159C500.384 63.0308 505.866 71.2883 506.905 79.7179C507.858 87.4552 506.275 95.2929 502.392 102.053C498.161 109.418 489.904 114.899 473.389 125.862L310.458 234.018C278.31 255.358 262.236 266.028 249.777 264.999C238.462 264.064 228.251 257.845 222.227 248.221C215.594 237.625 217.696 218.447 221.902 180.09L230.983 97.2672C232.882 79.9423 233.832 71.2799 231.462 63.9469C229.284 57.2052 225.164 51.2562 219.62 46.8451C213.589 42.0472 205.146 39.8889 188.261 35.5722L124.801 19.3492C85.7019 9.35377 66.1523 4.35606 58.5419 -5.85574C51.6354 -15.1231 49.5984 -27.1431 53.066 -38.1686C56.887 -50.3176 73.6984 -61.4773 107.321 -83.7966L264.815 -188.343Z" fill="#C72FF8" fill-opacity="0.34"/>
<path d="M284.769 -171.825C301.393 -182.621 309.705 -188.019 318.145 -188.973C325.892 -189.849 333.713 -188.186 340.434 -184.235C347.756 -179.931 353.154 -171.619 363.95 -154.994L481.339 25.7689C492.135 42.3933 497.533 50.7054 498.487 59.1451C499.363 66.8916 497.7 74.713 493.749 81.4335C489.445 88.7555 481.133 94.1535 464.508 104.95L338.432 186.824C306.035 207.863 289.837 218.383 277.383 217.224C266.073 216.171 255.923 209.842 250 200.149C243.479 189.476 245.796 170.301 250.431 131.951L254.878 95.1494C256.816 79.1212 257.784 71.107 255.798 64.1311C253.971 57.7121 250.395 51.9274 245.47 47.4231C240.118 42.5281 232.516 39.8119 217.312 34.3794L164.913 15.656C130.284 3.28246 112.97 -2.90431 106.342 -13.1985C100.319 -22.5548 98.9607 -34.1709 102.663 -44.6644C106.737 -56.2097 122.157 -66.2237 152.998 -86.2518L284.769 -171.825Z" fill="#52D1F9"/>
</svg>
