<svg width="300" height="160" viewBox="0 0 300 160" fill="none" xmlns="http://www.w3.org/2000/svg">
<mask id="mask0_1096_2970" style="mask-type:luminance" maskUnits="userSpaceOnUse" x="4" y="40" width="286" height="93">
<path d="M4.37109 40.897H289.237V132.4H4.37109V40.897Z" fill="white"/>
</mask>
<g mask="url(#mask0_1096_2970)">
<mask id="mask1_1096_2970" style="mask-type:luminance" maskUnits="userSpaceOnUse" x="4" y="40" width="286" height="93">
<path d="M282.391 132.313H11.0501C7.37015 132.313 4.37109 130.126 4.37109 127.441V45.7708C4.37109 43.0854 7.37015 40.897 11.0501 40.897H282.391C286.071 40.897 289.071 43.0854 289.071 45.7708V127.441C289.071 130.126 286.071 132.313 282.391 132.313Z" fill="white"/>
</mask>
<g mask="url(#mask1_1096_2970)">
<path d="M4.37109 40.897H289.237V132.4H4.37109V40.897Z" fill="white"/>
</g>
</g>
<path d="M8.04297 8.54248V24.1749H10.8264V17.2777H12.1755C12.7433 17.2777 13.2171 17.3151 13.5928 17.3898C13.9728 17.4615 14.3143 17.5861 14.6174 17.7637C14.9248 17.9428 15.2108 18.1749 15.4798 18.4615C15.7466 18.745 16.0625 19.0939 16.4275 19.5082L18.8439 22.1188C19.1512 22.4646 19.4522 22.7777 19.7489 23.0596C20.0435 23.3431 20.3658 23.5861 20.7137 23.7886C21.0595 23.988 21.4523 24.1468 21.892 24.2621C22.3296 24.382 22.8526 24.4428 23.463 24.4428C23.9113 24.4428 24.2785 24.4272 24.5645 24.3992C24.8548 24.3696 25.1408 24.2948 25.4268 24.1749V23.3462C25.3244 23.3634 25.2219 23.3758 25.1195 23.3836C25.017 23.3929 24.9146 23.3961 24.8121 23.3961C24.3852 23.3961 24.0052 23.3524 23.6765 23.2652C23.3521 23.1749 23.0468 23.044 22.7629 22.8727C22.4769 22.6982 22.2015 22.4895 21.9347 22.2434C21.6722 21.9989 21.3968 21.72 21.1065 21.4085C20.2527 20.4989 19.5888 19.773 19.1171 19.2278C18.6496 18.6842 18.2761 18.2652 17.9986 17.9693C17.7253 17.6702 17.4991 17.4553 17.324 17.3213C17.1533 17.1842 16.9441 17.0721 16.7008 16.9848L16.4019 16.8727V16.7855C17.3795 16.7403 18.2206 16.5845 18.9207 16.3182C19.6251 16.0487 20.2036 15.7123 20.654 15.3088C21.1022 14.907 21.4267 14.4724 21.6273 14.0067C21.8322 13.5378 21.9347 13.0783 21.9347 12.6297C21.9347 12.2278 21.8258 11.7886 21.6102 11.3151C21.3989 10.8384 21.0318 10.3961 20.5088 9.98796C19.9901 9.57675 19.2814 9.23407 18.3828 8.95993C17.4884 8.68267 16.3592 8.54248 14.9931 8.54248H8.04297ZM10.8264 9.5269H13.9173C14.69 9.5269 15.388 9.61102 16.0092 9.77613C16.6346 9.93812 17.1725 10.1655 17.6229 10.4553C18.0711 10.7465 18.4127 11.0939 18.6475 11.4958C18.8801 11.8945 18.9975 12.3338 18.9975 12.8104C18.9975 13.2138 18.8887 13.6204 18.6731 14.0316C18.4618 14.4397 18.1395 14.8104 17.7083 15.1468C17.2814 15.4802 16.7563 15.7496 16.1372 15.9568C15.5161 16.1655 14.7967 16.2683 13.9771 16.2683H10.8264V9.5269Z" fill="#304655"/>
<path d="M30.0117 8.54248V24.1749H43.8437V22.9475H32.7952V16.4054H42.2812V15.3774H32.7952V9.76989H43.8437V8.54248H30.0117Z" fill="#304655"/>
<path d="M50.514 8.54248H48.4307V24.1749H49.7797V11.4272H49.8992L59.3596 24.4428H59.9061L69.5799 11.5144H69.6994V24.1749H72.4829V8.54248H70.374L60.4611 21.963H60.333L50.514 8.54248Z" fill="#304655"/>
<path d="M81.0439 8.54248V24.1749H83.836V8.54248H81.0439Z" fill="#304655"/>
<path d="M109.654 8.54282V20.493H109.535L92.5521 8.2749H92.3984V24.1752H93.8072V12.2313H93.9268L110.909 24.4431H111.063V8.54282H109.654Z" fill="#304655"/>
<path d="M118.713 24.1749V8.54248H125.748C127.443 8.54248 128.995 8.7403 130.402 9.13438C131.806 9.53002 133.014 10.0736 134.022 10.7668C135.034 11.4568 135.819 12.2792 136.379 13.2341C136.942 14.1858 137.224 15.2123 137.224 16.312C137.224 17.4584 136.934 18.5144 136.353 19.4771C135.772 20.4366 134.974 21.2683 133.962 21.9693C132.955 22.6671 131.776 23.2091 130.427 23.5954C129.083 23.9817 127.646 24.1749 126.116 24.1749H118.713ZM121.496 23.1905H124.86C126.534 23.1905 127.956 22.988 129.13 22.5799C130.301 22.1686 131.266 21.6375 132.024 20.9848C132.78 20.3291 133.33 19.5954 133.672 18.7855C134.018 17.9724 134.193 17.164 134.193 16.3618C134.193 15.4693 133.988 14.6095 133.578 13.7824C133.172 12.9568 132.579 12.2278 131.793 11.5954C131.008 10.9599 130.035 10.4584 128.873 10.0877C127.712 9.71382 126.374 9.5269 124.86 9.5269H121.496V23.1905Z" fill="#304655"/>
<path d="M141.812 8.54248V24.1749H155.644V22.9475H144.596V16.4054H154.082V15.3774H144.596V9.76989H155.644V8.54248H141.812Z" fill="#304655"/>
<path d="M160.231 8.54248V24.1749H163.015V17.2777H164.364C164.932 17.2777 165.406 17.3151 165.781 17.3898C166.161 17.4615 166.503 17.5861 166.806 17.7637C167.113 17.9428 167.399 18.1749 167.668 18.4615C167.935 18.745 168.251 19.0939 168.616 19.5082L171.032 22.1188C171.34 22.4646 171.641 22.7777 171.937 23.0596C172.232 23.3431 172.554 23.5861 172.902 23.7886C173.248 23.988 173.641 24.1468 174.08 24.2621C174.518 24.382 175.041 24.4428 175.652 24.4428C176.1 24.4428 176.467 24.4272 176.753 24.3992C177.043 24.3696 177.329 24.2948 177.615 24.1749V23.3462C177.513 23.3634 177.41 23.3758 177.308 23.3836C177.205 23.3929 177.103 23.3961 177.001 23.3961C176.574 23.3961 176.194 23.3524 175.865 23.2652C175.541 23.1749 175.235 23.044 174.951 22.8727C174.665 22.6982 174.39 22.4895 174.123 22.2434C173.861 21.9989 173.585 21.72 173.295 21.4085C172.441 20.4989 171.777 19.773 171.306 19.2278C170.838 18.6842 170.465 18.2652 170.187 17.9693C169.914 17.6702 169.688 17.4553 169.513 17.3213C169.342 17.1842 169.133 17.0721 168.889 16.9848L168.59 16.8727V16.7855C169.568 16.7403 170.409 16.5845 171.109 16.3182C171.814 16.0487 172.392 15.7123 172.842 15.3088C173.291 14.907 173.615 14.4724 173.816 14.0067C174.021 13.5378 174.123 13.0783 174.123 12.6297C174.123 12.2278 174.014 11.7886 173.799 11.3151C173.587 10.8384 173.22 10.3961 172.697 9.98796C172.179 9.57675 171.47 9.23407 170.571 8.95993C169.677 8.68267 168.548 8.54248 167.182 8.54248H160.231ZM163.015 9.5269H166.106C166.878 9.5269 167.576 9.61102 168.198 9.77613C168.823 9.93812 169.361 10.1655 169.811 10.4553C170.26 10.7465 170.601 11.0939 170.836 11.4958C171.069 11.8945 171.186 12.3338 171.186 12.8104C171.186 13.2138 171.077 13.6204 170.862 14.0316C170.65 14.4397 170.328 14.8104 169.897 15.1468C169.47 15.4802 168.945 15.7496 168.326 15.9568C167.705 16.1655 166.985 16.2683 166.166 16.2683H163.015V9.5269Z" fill="#304655"/>
<mask id="mask2_1096_2970" style="mask-type:luminance" maskUnits="userSpaceOnUse" x="250" y="21" width="21" height="27">
<path d="M250.038 21.0356H270.72V47.8892H250.038V21.0356Z" fill="white"/>
</mask>
<g mask="url(#mask2_1096_2970)">
<mask id="mask3_1096_2970" style="mask-type:luminance" maskUnits="userSpaceOnUse" x="250" y="21" width="21" height="27">
<path d="M259.358 21.0356C253.814 21.0356 250.038 24.6291 250.038 28.4422C250.038 32.0839 253.69 34.6244 258.85 34.6244C259.974 34.6244 261.639 34.355 262.72 34.0434C262.094 39.8923 259.866 40.7459 252.151 43.7381L255.552 47.8892C268.071 44.1945 270.684 39.7584 270.684 31.288C270.684 24.8487 265.9 21.0356 259.358 21.0356Z" fill="white"/>
</mask>
<g mask="url(#mask3_1096_2970)">
<path d="M250.038 21.0356H270.72V47.8892H250.038V21.0356Z" fill="#304655"/>
</g>
</g>
<mask id="mask4_1096_2970" style="mask-type:luminance" maskUnits="userSpaceOnUse" x="225" y="21" width="22" height="27">
<path d="M225.873 21.0356H246.555V47.8892H225.873V21.0356Z" fill="white"/>
</mask>
<g mask="url(#mask4_1096_2970)">
<mask id="mask5_1096_2970" style="mask-type:luminance" maskUnits="userSpaceOnUse" x="225" y="21" width="22" height="27">
<path d="M235.193 21.0356C229.649 21.0356 225.873 24.6291 225.873 28.4422C225.873 32.0839 229.525 34.6244 234.685 34.6244C235.809 34.6244 237.472 34.355 238.554 34.0434C237.929 39.8923 235.701 40.7459 227.986 43.7381L231.387 47.8892C243.906 44.1945 246.519 39.7584 246.519 31.288C246.519 24.8487 241.735 21.0356 235.193 21.0356Z" fill="white"/>
</mask>
<g mask="url(#mask5_1096_2970)">
<path d="M225.873 21.0356H246.555V47.8892H225.873V21.0356Z" fill="#304655"/>
</g>
</g>
<path d="M9.6416 78.9565L283.826 78.9503" stroke="#F1EEE7" stroke-width="2.00009"/>
<path d="M9.64355 60.709L283.824 60.1109" stroke="#F1EEE7" stroke-width="2.00009"/>
<path d="M9.6416 96.4609L283.826 96.4501" stroke="#F1EEE7" stroke-width="2.00009"/>
<path d="M9.6416 114.206L283.826 114.196" stroke="#F1EEE7" stroke-width="2.00009"/>
<path d="M50.3588 71.9767H55.3623L55.1488 72.8303H48.7451L50.6321 64.8926H52.0409L50.3588 71.9767Z" fill="#304655"/>
<path d="M60.7049 72.9425C59.6974 72.9254 58.9076 72.6544 58.3398 72.1263C57.7699 71.5998 57.5308 70.9238 57.6226 70.1014L57.6653 69.8709C57.7443 69.2852 57.9812 68.7525 58.374 68.2696C58.7667 67.7836 59.2449 67.4192 59.8084 67.1731C60.3719 66.9285 60.9781 66.8117 61.6271 66.8241C62.4574 66.8366 63.1084 67.0391 63.5823 67.4285C64.0605 67.8148 64.3187 68.3428 64.3593 69.0111C64.3764 69.2447 64.3678 69.4783 64.3337 69.7151L64.2483 70.1699H58.9717C58.8799 70.7058 58.9994 71.1606 59.3303 71.5344C59.659 71.9083 60.1542 72.1014 60.8159 72.1139C61.6121 72.131 62.3485 71.8693 63.0273 71.3288L63.8043 71.8086C63.4628 72.1668 63.0231 72.4472 62.4894 72.6497C61.9536 72.8491 61.3581 72.9456 60.7049 72.9425ZM61.5587 67.6466C60.9995 67.6341 60.5128 67.7712 60.0987 68.0578C59.6825 68.3444 59.3516 68.7727 59.1083 69.3413L63.0444 69.3475L63.07 69.2603C63.149 68.8039 63.0465 68.4238 62.7626 68.1201C62.483 67.8132 62.0817 67.6559 61.5587 67.6466Z" fill="#304655"/>
<path d="M70.6923 72.8299C70.6581 72.7271 70.6411 72.6228 70.6411 72.5184L70.6667 72.2069C69.926 72.71 69.1383 72.9546 68.3016 72.9421C67.5886 72.9327 67.0123 72.7707 66.5683 72.4499C66.1243 72.1259 65.9215 71.7209 65.9621 71.2349C66.0069 70.6119 66.3805 70.1259 67.0806 69.777C67.7807 69.425 68.7029 69.2474 69.847 69.2474L71.2558 69.2536L71.3497 68.7863C71.3946 68.4343 71.2985 68.1555 71.0594 67.9514C70.8246 67.7443 70.4724 67.6368 70.0007 67.6274C69.5396 67.6197 69.1298 67.7022 68.7712 67.8767C68.4168 68.0511 68.2013 68.2801 68.1223 68.562L66.7562 68.5683C66.801 68.224 66.9867 67.9187 67.3111 67.6524C67.6356 67.3829 68.0497 67.1757 68.5577 67.0293C69.0636 66.8798 69.5909 66.8097 70.1373 66.8175C70.9783 66.8299 71.6336 67.0169 72.1011 67.3782C72.5664 67.7365 72.7628 68.21 72.6902 68.7988L72.0328 71.7209L71.9986 72.1446C71.9858 72.344 72.0157 72.5418 72.084 72.7365L72.067 72.8299H70.6923ZM68.5748 72.0636C69.006 72.0729 69.4158 71.9982 69.8043 71.8393C70.1907 71.682 70.5237 71.4639 70.8033 71.1851L71.0936 69.9701L70.069 69.9639C69.2152 69.9639 68.5599 70.062 68.1052 70.2567C67.6548 70.453 67.4008 70.7303 67.3453 71.0916C67.2983 71.3658 67.388 71.5963 67.61 71.7832C67.832 71.967 68.1522 72.0605 68.5748 72.0636Z" fill="#304655"/>
<path d="M79.5398 67.8335L78.9079 67.7836C78.037 67.7836 77.354 68.0687 76.8588 68.6372L75.8683 72.8304H74.5107L75.9196 66.9301L77.2259 66.9238L77.021 67.6154C77.5952 67.064 78.2697 66.7961 79.0446 66.8117C79.2089 66.8117 79.4245 66.8397 79.6935 66.8927L79.5398 67.8335Z" fill="#304655"/>
<path d="M82.8978 66.9235L82.71 67.6712C83.4314 67.0902 84.2575 66.8083 85.1861 66.8239C85.9481 66.8363 86.5116 67.0295 86.8766 67.4033C87.2395 67.774 87.374 68.2943 87.2779 68.9672L86.3985 72.8301H85.0409L85.9374 68.9485C85.9652 68.7709 85.9652 68.6042 85.9374 68.45C85.8563 67.9438 85.4465 67.6837 84.7079 67.6712C83.8925 67.6634 83.1817 67.9796 82.5734 68.6182L81.5744 72.8301H80.2168L81.6256 66.9298L82.8978 66.9235Z" fill="#304655"/>
<path d="M100.787 69.9083C100.689 70.5111 100.465 71.0547 100.113 71.5407C99.7586 72.0235 99.3296 72.3802 98.8237 72.6123C98.3221 72.8444 97.7649 72.955 97.1502 72.9425C96.1768 72.9301 95.4532 72.6653 94.9815 72.145L94.6997 72.8304H93.4531L95.4511 64.4565H96.8001L95.989 67.5843C96.6379 67.0609 97.4234 66.8086 98.3455 66.8241C99.1247 66.8366 99.7309 67.0453 100.164 67.4472C100.595 67.8506 100.824 68.4067 100.847 69.117C100.852 69.3506 100.839 69.5765 100.805 69.7961L100.787 69.9083ZM99.5067 69.335C99.5238 68.8039 99.4 68.3989 99.1396 68.1201C98.8835 67.8382 98.4864 67.6886 97.9528 67.6715C97.1096 67.659 96.3988 67.969 95.8182 68.5998L95.212 71.1668C95.5066 71.765 96.068 72.0734 96.894 72.0889C97.417 72.1014 97.8781 71.9877 98.2772 71.7463C98.6743 71.5017 98.9731 71.1606 99.1738 70.7245C99.3787 70.2852 99.4897 69.821 99.5067 69.335Z" fill="#304655"/>
<path d="M105.97 72.9425C104.962 72.9254 104.172 72.6544 103.604 72.1263C103.035 71.5998 102.795 70.9238 102.887 70.1014L102.93 69.8709C103.009 69.2852 103.246 68.7525 103.639 68.2696C104.031 67.7836 104.51 67.4192 105.073 67.1731C105.637 66.9285 106.243 66.8117 106.892 66.8241C107.722 66.8366 108.373 67.0391 108.847 67.4285C109.325 67.8148 109.583 68.3428 109.624 69.0111C109.641 69.2447 109.632 69.4783 109.598 69.7151L109.513 70.1699H104.236C104.145 70.7058 104.264 71.1606 104.595 71.5344C104.924 71.9083 105.419 72.1014 106.081 72.1139C106.877 72.131 107.613 71.8693 108.292 71.3288L109.069 71.8086C108.727 72.1668 108.288 72.4472 107.754 72.6497C107.218 72.8491 106.623 72.9456 105.97 72.9425ZM106.823 67.6466C106.264 67.6341 105.777 67.7712 105.363 68.0578C104.947 68.3444 104.616 68.7727 104.373 69.3413L108.309 69.3475L108.335 69.2603C108.414 68.8039 108.311 68.4238 108.027 68.1201C107.748 67.8132 107.346 67.6559 106.823 67.6466Z" fill="#304655"/>
<path d="M111.671 72.8302L112.901 67.7087H111.654L111.834 66.9299H113.08L113.208 66.2321C113.338 65.6433 113.654 65.1792 114.156 64.8427C114.679 64.4938 115.345 64.324 116.154 64.3318C116.41 64.3318 116.73 64.363 117.119 64.4253L116.957 65.2477C116.717 65.2103 116.474 65.1885 116.231 65.1792C115.763 65.1792 115.381 65.2882 115.087 65.5031C114.796 65.715 114.617 65.9985 114.549 66.3505L114.429 66.9299H116.103L115.915 67.7087H114.241L113.029 72.8302H111.671Z" fill="#304655"/>
<path d="M121.346 66.824C122.023 66.8287 122.603 66.9611 123.088 67.2228C123.57 67.4845 123.927 67.8458 124.155 68.3069C124.388 68.768 124.467 69.2711 124.394 69.8147L124.377 69.9331C124.285 70.511 124.052 71.0328 123.677 71.4969C123.301 71.958 122.817 72.3178 122.225 72.5748C121.632 72.8318 120.983 72.9549 120.279 72.9424C119.606 72.9331 119.026 72.7991 118.537 72.5374C118.052 72.2758 117.696 71.9206 117.469 71.472C117.247 71.0203 117.171 70.5219 117.239 69.9767C117.312 69.3661 117.538 68.8178 117.913 68.3318C118.293 67.8458 118.78 67.4705 119.374 67.2041C119.971 66.9346 120.629 66.8085 121.346 66.824ZM118.597 69.9829C118.562 70.2119 118.562 70.4502 118.597 70.6994C118.648 71.1278 118.823 71.4705 119.126 71.7275C119.427 71.9814 119.828 72.1122 120.33 72.12C120.778 72.1324 121.192 72.0546 121.568 71.8832C121.948 71.7088 122.268 71.4471 122.524 71.0982C122.785 70.7493 122.953 70.3614 123.028 69.9331C123.066 69.6013 123.075 69.3209 123.054 69.092C122.989 68.6527 122.806 68.3053 122.499 68.0515C122.195 67.7944 121.794 67.6589 121.295 67.6465C120.594 67.634 119.999 67.8334 119.51 68.2446C119.026 68.6558 118.727 69.1948 118.614 69.8583L118.597 69.9829Z" fill="#304655"/>
<path d="M131.034 67.8335L130.402 67.7836C129.531 67.7836 128.848 68.0687 128.353 68.6372L127.362 72.8304H126.005L127.414 66.9301L128.72 66.9238L128.515 67.6154C129.089 67.064 129.764 66.7961 130.539 66.8117C130.703 66.8117 130.919 66.8397 131.188 66.8927L131.034 67.8335Z" fill="#304655"/>
<path d="M135.212 72.9425C134.204 72.9254 133.414 72.6544 132.847 72.1263C132.277 71.5998 132.038 70.9238 132.129 70.1014L132.172 69.8709C132.251 69.2852 132.488 68.7525 132.881 68.2696C133.274 67.7836 133.752 67.4192 134.315 67.1731C134.879 66.9285 135.485 66.8117 136.134 66.8241C136.964 66.8366 137.615 67.0391 138.089 67.4285C138.567 67.8148 138.826 68.3428 138.866 69.0111C138.883 69.2447 138.875 69.4783 138.841 69.7151L138.755 70.1699H133.478C133.387 70.7058 133.506 71.1606 133.837 71.5344C134.166 71.9083 134.661 72.1014 135.323 72.1139C136.119 72.131 136.855 71.8693 137.534 71.3288L138.311 71.8086C137.97 72.1668 137.53 72.4472 136.996 72.6497C136.46 72.8491 135.865 72.9456 135.212 72.9425ZM136.066 67.6466C135.506 67.6341 135.02 67.7712 134.606 68.0578C134.189 68.3444 133.858 68.7727 133.615 69.3413L137.551 69.3475L137.577 69.2603C137.656 68.8039 137.553 68.4238 137.269 68.1201C136.99 67.8132 136.589 67.6559 136.066 67.6466Z" fill="#304655"/>
<path d="M147.522 71.3409L150.399 66.9297H151.893L147.095 73.8144C146.429 74.7693 145.571 75.2412 144.525 75.2288C144.337 75.2241 144.064 75.1914 143.705 75.1291L143.825 74.3129L144.175 74.3378C144.606 74.3534 144.977 74.2848 145.285 74.1322C145.596 73.978 145.874 73.7272 146.113 73.3783L146.6 72.7054L145.199 66.9297H146.617L147.522 71.3409Z" fill="#304655"/>
<path d="M156.819 66.824C157.495 66.8287 158.076 66.9611 158.56 67.2228C159.043 67.4845 159.399 67.8458 159.628 68.3069C159.86 68.768 159.939 69.2711 159.867 69.8147L159.85 69.9331C159.758 70.511 159.525 71.0328 159.149 71.4969C158.774 71.958 158.289 72.3178 157.698 72.5748C157.105 72.8318 156.456 72.9549 155.751 72.9424C155.079 72.9331 154.498 72.7991 154.009 72.5374C153.525 72.2758 153.168 71.9206 152.942 71.472C152.72 71.0203 152.643 70.5219 152.712 69.9767C152.784 69.3661 153.01 68.8178 153.386 68.3318C153.766 67.8458 154.253 67.4705 154.846 67.2041C155.444 66.9346 156.101 66.8085 156.819 66.824ZM154.069 69.9829C154.035 70.2119 154.035 70.4502 154.069 70.6994C154.12 71.1278 154.295 71.4705 154.599 71.7275C154.9 71.9814 155.301 72.1122 155.802 72.12C156.251 72.1324 156.665 72.0546 157.041 71.8832C157.42 71.7088 157.741 71.4471 157.997 71.0982C158.257 70.7493 158.426 70.3614 158.501 69.9331C158.539 69.6013 158.548 69.3209 158.526 69.092C158.462 68.6527 158.279 68.3053 157.971 68.0515C157.668 67.7944 157.267 67.6589 156.767 67.6465C156.067 67.634 155.472 67.8334 154.983 68.2446C154.498 68.6558 154.199 69.1948 154.086 69.8583L154.069 69.9829Z" fill="#304655"/>
<path d="M166.609 72.2443C165.977 72.7225 165.174 72.9546 164.201 72.9421C163.426 72.925 162.854 72.7241 162.485 72.3378C162.113 71.9484 161.975 71.4157 162.066 70.7428L162.937 66.9297H164.286L163.415 70.7552C163.386 70.9172 163.381 71.0761 163.398 71.2288C163.42 71.4904 163.526 71.696 163.714 71.8456C163.906 71.992 164.171 72.0699 164.508 72.0823C165.475 72.1041 166.225 71.8191 166.754 71.2288L167.77 66.9297H169.119L167.719 72.83H166.438L166.609 72.2443Z" fill="#304655"/>
<path d="M178.206 72.9425C177.198 72.9254 176.409 72.6544 175.841 72.1263C175.271 71.5998 175.032 70.9238 175.124 70.1014L175.166 69.8709C175.245 69.2852 175.482 68.7525 175.875 68.2696C176.268 67.7836 176.746 67.4192 177.309 67.1731C177.873 66.9285 178.479 66.8117 179.128 66.8241C179.958 66.8366 180.609 67.0391 181.083 67.4285C181.561 67.8148 181.82 68.3428 181.86 69.0111C181.877 69.2447 181.869 69.4783 181.835 69.7151L181.749 70.1699H176.473C176.381 70.7058 176.5 71.1606 176.831 71.5344C177.16 71.9083 177.655 72.1014 178.317 72.1139C179.113 72.131 179.85 71.8693 180.528 71.3288L181.305 71.8086C180.964 72.1668 180.524 72.4472 179.99 72.6497C179.455 72.8491 178.859 72.9456 178.206 72.9425ZM179.06 67.6466C178.5 67.6341 178.014 67.7712 177.6 68.0578C177.183 68.3444 176.853 68.7727 176.609 69.3413L180.545 69.3475L180.571 69.2603C180.65 68.8039 180.548 68.4238 180.264 68.1201C179.984 67.8132 179.583 67.6559 179.06 67.6466Z" fill="#304655"/>
<path d="M188.194 72.8299C188.16 72.7271 188.143 72.6228 188.143 72.5184L188.169 72.2069C187.428 72.71 186.64 72.9546 185.804 72.9421C185.091 72.9327 184.514 72.7707 184.07 72.4499C183.626 72.1259 183.423 71.7209 183.464 71.2349C183.509 70.6119 183.882 70.1259 184.583 69.777C185.283 69.425 186.205 69.2474 187.349 69.2474L188.758 69.2536L188.852 68.7863C188.897 68.4343 188.8 68.1555 188.561 67.9514C188.327 67.7443 187.974 67.6368 187.503 67.6274C187.042 67.6197 186.632 67.7022 186.273 67.8767C185.919 68.0511 185.703 68.2801 185.624 68.562L184.258 68.5683C184.303 68.224 184.489 67.9187 184.813 67.6524C185.138 67.3829 185.552 67.1757 186.06 67.0293C186.566 66.8798 187.093 66.8097 187.639 66.8175C188.48 66.8299 189.136 67.0169 189.603 67.3782C190.068 67.7365 190.265 68.21 190.192 68.7988L189.535 71.7209L189.501 72.1446C189.488 72.344 189.518 72.5418 189.586 72.7365L189.569 72.8299H188.194ZM186.077 72.0636C186.508 72.0729 186.918 71.9982 187.306 71.8393C187.693 71.682 188.026 71.4639 188.305 71.1851L188.596 69.9701L187.571 69.9639C186.717 69.9639 186.062 70.062 185.607 70.2567C185.157 70.453 184.903 70.7303 184.847 71.0916C184.8 71.3658 184.89 71.5963 185.112 71.7832C185.334 71.967 185.654 72.0605 186.077 72.0636Z" fill="#304655"/>
<path d="M197.041 67.8335L196.409 67.7836C195.538 67.7836 194.855 68.0687 194.36 68.6372L193.369 72.8304H192.012L193.421 66.9301L194.727 66.9238L194.522 67.6154C195.096 67.064 195.771 66.7961 196.546 66.8117C196.71 66.8117 196.925 66.8397 197.194 66.8927L197.041 67.8335Z" fill="#304655"/>
<path d="M200.4 66.9235L200.212 67.6712C200.933 67.0902 201.759 66.8083 202.688 66.8239C203.45 66.8363 204.014 67.0295 204.379 67.4033C204.741 67.774 204.876 68.2943 204.78 68.9672L203.9 72.8301H202.543L203.439 68.9485C203.467 68.7709 203.467 68.6042 203.439 68.45C203.358 67.9438 202.948 67.6837 202.21 67.6712C201.394 67.6634 200.684 67.9796 200.075 68.6182L199.076 72.8301H197.719L199.128 66.9298L200.4 66.9235Z" fill="#304655"/>
<path d="M206.294 74.4188L205.517 74.0076C206.097 73.4874 206.456 72.9702 206.592 72.4562L206.789 71.6338H208.112L207.95 72.369C207.773 73.1992 207.22 73.883 206.294 74.4188Z" fill="#304655"/>
<path d="M217.457 71.3409L220.335 66.9297H221.829L217.03 73.8144C216.364 74.7693 215.506 75.2412 214.46 75.2288C214.272 75.2241 213.999 75.1914 213.641 75.1291L213.76 74.3129L214.11 74.3378C214.541 74.3534 214.913 74.2848 215.22 74.1322C215.532 73.978 215.809 73.7272 216.048 73.3783L216.535 72.7054L215.135 66.9297H216.552L217.457 71.3409Z" fill="#304655"/>
<path d="M226.754 66.824C227.431 66.8287 228.011 66.9611 228.496 67.2228C228.978 67.4845 229.335 67.8458 229.563 68.3069C229.796 68.768 229.875 69.2711 229.802 69.8147L229.785 69.9331C229.693 70.511 229.461 71.0328 229.085 71.4969C228.709 71.958 228.225 72.3178 227.633 72.5748C227.04 72.8318 226.391 72.9549 225.687 72.9424C225.014 72.9331 224.434 72.7991 223.945 72.5374C223.46 72.2758 223.104 71.9206 222.878 71.472C222.656 71.0203 222.579 70.5219 222.647 69.9767C222.72 69.3661 222.946 68.8178 223.322 68.3318C223.702 67.8458 224.188 67.4705 224.782 67.2041C225.379 66.9346 226.037 66.8085 226.754 66.824ZM224.005 69.9829C223.971 70.2119 223.971 70.4502 224.005 70.6994C224.056 71.1278 224.231 71.4705 224.534 71.7275C224.835 71.9814 225.236 72.1122 225.738 72.12C226.186 72.1324 226.6 72.0546 226.976 71.8832C227.356 71.7088 227.676 71.4471 227.932 71.0982C228.193 70.7493 228.361 70.3614 228.436 69.9331C228.475 69.6013 228.483 69.3209 228.462 69.092C228.398 68.6527 228.214 68.3053 227.907 68.0515C227.604 67.7944 227.202 67.6589 226.703 67.6465C226.003 67.634 225.407 67.8334 224.918 68.2446C224.434 68.6558 224.135 69.1948 224.022 69.8583L224.005 69.9829Z" fill="#304655"/>
<path d="M236.544 72.2443C235.913 72.7225 235.11 72.9546 234.137 72.9421C233.362 72.925 232.79 72.7241 232.42 72.3378C232.049 71.9484 231.91 71.4157 232.002 70.7428L232.873 66.9297H234.222L233.351 70.7552C233.321 70.9172 233.317 71.0761 233.334 71.2288C233.355 71.4904 233.462 71.696 233.65 71.8456C233.842 71.992 234.107 72.0699 234.444 72.0823C235.411 72.1041 236.16 71.8191 236.69 71.2288L237.706 66.9297H239.055L237.654 72.83H236.374L236.544 72.2443Z" fill="#304655"/>
<path d="M245.308 67.8335L244.676 67.7836C243.806 67.7836 243.123 68.0687 242.627 68.6372L241.637 72.8304H240.279L241.688 66.9301L242.994 66.9238L242.79 67.6154C243.364 67.064 244.038 66.7961 244.813 66.8117C244.977 66.8117 245.193 66.8397 245.462 66.8927L245.308 67.8335Z" fill="#304655"/>
<path d="M40.8065 90.5871C39.799 90.5699 39.0092 90.2989 38.4414 89.7709C37.8715 89.2444 37.6324 88.5684 37.7242 87.7459L37.7669 87.5154C37.8458 86.9297 38.0828 86.397 38.4755 85.9142C38.8683 85.4282 39.3464 85.0637 39.91 84.8176C40.4735 84.573 41.0797 84.4562 41.7286 84.4687C42.559 84.4811 43.21 84.6836 43.6839 85.073C44.162 85.4593 44.4203 85.9874 44.4609 86.6556C44.4779 86.8892 44.4694 87.1229 44.4352 87.3596L44.3499 87.8145H39.0732C38.9814 88.3503 39.101 88.8051 39.4318 89.179C39.7605 89.5528 40.2558 89.7459 40.9175 89.7584C41.7137 89.7755 42.4501 89.5138 43.1289 88.9733L43.9059 89.4531C43.5643 89.8114 43.1246 90.0917 42.591 90.2942C42.0552 90.4936 41.4597 90.5902 40.8065 90.5871ZM41.6603 85.2911C41.1011 85.2786 40.6144 85.4157 40.2003 85.7023C39.784 85.9889 39.4532 86.4173 39.2098 86.9858L43.146 86.992L43.1716 86.9048C43.2506 86.4484 43.1481 86.0684 42.8642 85.7646C42.5846 85.4578 42.1833 85.3005 41.6603 85.2911Z" fill="#304655"/>
<path d="M49.3261 86.7242L51.5204 84.5747H53.1854L49.9409 87.5404L51.9132 90.475H50.4361L49.1041 88.2694L46.8244 90.475H45.168L48.515 87.4408L46.6024 84.5747H48.0795L49.3261 86.7242Z" fill="#304655"/>
<path d="M61.2221 87.5531C61.1197 88.1512 60.8934 88.6917 60.5476 89.173C60.2061 89.6512 59.7813 90.011 59.2754 90.2509C58.7674 90.4876 58.2039 90.5998 57.5848 90.5873C56.6499 90.5749 55.9327 90.3443 55.4332 89.8957L54.716 92.7431H53.3584L55.3051 84.5749L56.5261 84.5686L56.3809 85.2291C57.0469 84.7057 57.8453 84.4534 58.7802 84.4689C59.5529 84.4814 60.157 84.6901 60.5903 85.092C61.0215 85.4954 61.252 86.0515 61.2819 86.7618C61.2862 86.9954 61.2734 87.2213 61.2392 87.4409L61.2221 87.5531ZM59.8902 87.4409L59.9243 86.9798C59.9243 86.4487 59.7834 86.0437 59.5059 85.7649C59.2327 85.483 58.8336 85.3334 58.3106 85.3163C57.5293 85.3038 56.8548 85.5764 56.287 86.1325L55.6125 88.9612C55.9135 89.4845 56.4578 89.7524 57.2433 89.7649C57.9136 89.7774 58.4856 89.5873 58.9595 89.1917C59.4312 88.7976 59.7407 88.2135 59.8902 87.4409Z" fill="#304655"/>
<path d="M66.412 90.5871C65.4044 90.5699 64.6147 90.2989 64.0469 89.7709C63.4769 89.2444 63.2379 88.5684 63.3296 87.7459L63.3723 87.5154C63.4513 86.9297 63.6883 86.397 64.081 85.9142C64.4738 85.4282 64.9519 85.0637 65.5154 84.8176C66.079 84.573 66.6852 84.4562 67.3341 84.4687C68.1644 84.4811 68.8155 84.6836 69.2893 85.073C69.7675 85.4593 70.0258 85.9874 70.0663 86.6556C70.0834 86.8892 70.0749 87.1229 70.0407 87.3596L69.9553 87.8145H64.6787C64.5869 88.3503 64.7064 88.8051 65.0373 89.179C65.366 89.5528 65.8612 89.7459 66.523 89.7584C67.3191 89.7755 68.0556 89.5138 68.7344 88.9733L69.5113 89.4531C69.1698 89.8114 68.7301 90.0917 68.1964 90.2942C67.6607 90.4936 67.0651 90.5902 66.412 90.5871ZM67.2658 85.2911C66.7065 85.2786 66.2198 85.4157 65.8057 85.7023C65.3895 85.9889 65.0586 86.4173 64.8153 86.9858L68.7514 86.992L68.777 86.9048C68.856 86.4484 68.7536 86.0684 68.4697 85.7646C68.19 85.4578 67.7887 85.3005 67.2658 85.2911Z" fill="#304655"/>
<path d="M76.4861 85.478L75.8542 85.4282C74.9833 85.4282 74.3003 85.7132 73.8051 86.2818L72.8146 90.4749H71.457L72.8658 84.5746L74.1722 84.5684L73.9673 85.2599C74.5415 84.7085 75.216 84.4406 75.9908 84.4562C76.1552 84.4562 76.3708 84.4842 76.6398 84.5372L76.4861 85.478Z" fill="#304655"/>
<path d="M80.7323 83.1479L80.3908 84.5747H81.8679L81.68 85.3536H80.2115L79.3662 89.0233C79.3534 89.1199 79.3512 89.2071 79.3576 89.285C79.3961 89.5685 79.6095 89.7087 79.998 89.7087C80.1624 89.7087 80.3822 89.6931 80.6554 89.6589L80.553 90.4813C80.2285 90.5467 79.8977 90.581 79.5625 90.581C79.0268 90.5716 78.6233 90.4283 78.3501 90.1448C78.0812 89.8629 77.9787 89.4844 78.0427 89.0109L78.8624 85.3536H77.4365L77.6244 84.5747H79.0503L79.3918 83.1479H80.7323Z" fill="#304655"/>
<path d="M84.1664 90.475H82.8174L84.2262 84.5746H85.5667L84.1664 90.475ZM85.2764 82.4251C85.5027 82.4173 85.6948 82.4672 85.8485 82.5746C86.0022 82.679 86.079 82.8176 86.079 82.9921C86.0726 83.1665 85.9957 83.3083 85.8485 83.4158C85.699 83.5248 85.5091 83.5824 85.2764 83.5902C85.0416 83.5996 84.8495 83.5513 84.6958 83.4469C84.5464 83.3394 84.4759 83.2008 84.4823 83.0295C84.4866 82.8597 84.5613 82.7179 84.7043 82.6058C84.8516 82.4905 85.0416 82.4298 85.2764 82.4251Z" fill="#304655"/>
<path d="M91.9886 88.8802C92.0676 88.4737 91.7623 88.1855 91.075 88.0142L89.6662 87.7151C88.4815 87.4161 87.9094 86.9223 87.95 86.2323C87.9842 85.7136 88.3086 85.2883 88.9234 84.955C89.5381 84.6232 90.2596 84.4612 91.0921 84.469C91.9118 84.4737 92.5735 84.6466 93.0815 84.9862C93.5938 85.3273 93.8414 85.7696 93.8243 86.3133L92.4753 86.307C92.4859 86.0173 92.3579 85.7774 92.0911 85.5905C91.8285 85.4036 91.4784 85.3086 91.0408 85.3039C90.5734 85.2961 90.1721 85.3787 89.837 85.5531C89.5168 85.7151 89.3353 85.9301 89.2905 86.1949C89.2222 86.536 89.5061 86.7852 90.1443 86.9425L90.8274 87.0796C91.7538 87.2541 92.4112 87.483 92.7997 87.765C93.1861 88.0438 93.3654 88.388 93.3376 88.7992C93.3078 89.17 93.1434 89.4908 92.8424 89.765C92.5457 90.036 92.1466 90.2432 91.6471 90.388C91.1518 90.5282 90.6225 90.5952 90.059 90.5874C89.1987 90.5781 88.49 90.3974 87.9329 90.0391C87.3737 89.6777 87.1069 89.2167 87.1303 88.6559L88.4794 88.6622C88.4794 88.9908 88.6245 89.2541 88.9148 89.4534C89.2051 89.6528 89.6 89.7525 90.1016 89.7525C90.5969 89.7619 91.0238 89.6871 91.3824 89.5282C91.741 89.3709 91.9416 89.1544 91.9886 88.8802Z" fill="#304655"/>
<path d="M98.8221 90.5871C97.8146 90.5699 97.0248 90.2989 96.457 89.7709C95.8871 89.2444 95.648 88.5684 95.7398 87.7459L95.7825 87.5154C95.8615 86.9297 96.0984 86.397 96.4912 85.9142C96.8839 85.4282 97.3621 85.0637 97.9256 84.8176C98.4891 84.573 99.0953 84.4562 99.7442 84.4687C100.575 84.4811 101.226 84.6836 101.7 85.073C102.178 85.4593 102.436 85.9874 102.476 86.6556C102.494 86.8892 102.485 87.1229 102.451 87.3596L102.365 87.8145H97.0888C96.9971 88.3503 97.1166 88.8051 97.4475 89.179C97.7762 89.5528 98.2714 89.7459 98.9331 89.7584C99.7293 89.7755 100.466 89.5138 101.145 88.9733L101.921 89.4531C101.58 89.8114 101.14 90.0917 100.607 90.2942C100.071 90.4936 99.4753 90.5902 98.8221 90.5871ZM99.6759 85.2911C99.1167 85.2786 98.63 85.4157 98.2159 85.7023C97.7997 85.9889 97.4688 86.4173 97.2255 86.9858L101.162 86.992L101.187 86.9048C101.266 86.4484 101.164 86.0684 100.88 85.7646C100.6 85.4578 100.199 85.3005 99.6759 85.2911Z" fill="#304655"/>
<path d="M115.486 89.0794L118.064 84.5747H119.456L115.776 90.475H114.675L113.838 86.014L110.926 90.475H109.825L108.954 84.5747H110.243L110.739 88.9672L113.607 84.5747H114.7L115.486 89.0794Z" fill="#304655"/>
<path d="M121.537 90.475H120.188L121.596 84.5746H122.937L121.537 90.475ZM122.647 82.4251C122.873 82.4173 123.065 82.4672 123.219 82.5746C123.372 82.679 123.449 82.8176 123.449 82.9921C123.443 83.1665 123.366 83.3083 123.219 83.4158C123.069 83.5248 122.879 83.5824 122.647 83.5902C122.412 83.5996 122.22 83.5513 122.066 83.4469C121.916 83.3394 121.846 83.2008 121.852 83.0295C121.857 82.8597 121.931 82.7179 122.074 82.6058C122.222 82.4905 122.412 82.4298 122.647 82.4251Z" fill="#304655"/>
<path d="M125.824 90.4749H124.475L126.464 82.1011H127.813L125.824 90.4749Z" fill="#304655"/>
<path d="M130.111 90.4749H128.762L130.751 82.1011H132.1L130.111 90.4749Z" fill="#304655"/>
<path d="M139.818 85.2973C140.523 84.7335 141.338 84.4593 142.26 84.4749C143.016 84.4796 143.577 84.6681 143.942 85.0419C144.312 85.4157 144.448 85.9391 144.352 86.612L143.473 90.4749H142.115L143.012 86.5933C143.039 86.4157 143.039 86.249 143.012 86.0948C142.931 85.5886 142.521 85.3285 141.782 85.316C140.956 85.3036 140.245 85.6198 139.648 86.2631L138.649 90.4749H137.291L139.289 82.1011H140.638L139.818 85.2973Z" fill="#304655"/>
<path d="M149.65 90.5871C148.643 90.5699 147.853 90.2989 147.285 89.7709C146.715 89.2444 146.476 88.5684 146.568 87.7459L146.611 87.5154C146.69 86.9297 146.927 86.397 147.319 85.9142C147.712 85.4282 148.19 85.0637 148.754 84.8176C149.317 84.573 149.923 84.4562 150.572 84.4687C151.403 84.4811 152.054 84.6836 152.528 85.073C153.006 85.4593 153.264 85.9874 153.305 86.6556C153.322 86.8892 153.313 87.1229 153.279 87.3596L153.194 87.8145H147.917C147.825 88.3503 147.945 88.8051 148.276 89.179C148.604 89.5528 149.1 89.7459 149.761 89.7584C150.557 89.7755 151.294 89.5138 151.973 88.9733L152.75 89.4531C152.408 89.8114 151.968 90.0917 151.435 90.2942C150.899 90.4936 150.303 90.5902 149.65 90.5871ZM150.504 85.2911C149.945 85.2786 149.458 85.4157 149.044 85.7023C148.628 85.9889 148.297 86.4173 148.054 86.9858L151.99 86.992L152.015 86.9048C152.094 86.4484 151.992 86.0684 151.708 85.7646C151.428 85.4578 151.027 85.3005 150.504 85.2911Z" fill="#304655"/>
<path d="M156.163 90.4749H154.814L156.804 82.1011H158.153L156.163 90.4749Z" fill="#304655"/>
<path d="M166.308 87.5531C166.206 88.1512 165.979 88.6917 165.634 89.173C165.292 89.6512 164.867 90.011 164.361 90.2509C163.853 90.4876 163.29 90.5998 162.671 90.5873C161.736 90.5749 161.019 90.3443 160.519 89.8957L159.802 92.7431H158.444L160.391 84.5749L161.612 84.5686L161.467 85.2291C162.133 84.7057 162.931 84.4534 163.866 84.4689C164.639 84.4814 165.243 84.6901 165.676 85.092C166.107 85.4954 166.338 86.0515 166.368 86.7618C166.372 86.9954 166.359 87.2213 166.325 87.4409L166.308 87.5531ZM164.976 87.4409L165.01 86.9798C165.01 86.4487 164.869 86.0437 164.592 85.7649C164.319 85.483 163.919 85.3334 163.397 85.3163C162.615 85.3038 161.941 85.5764 161.373 86.1325L160.698 88.9612C160.999 89.4845 161.544 89.7524 162.329 89.7649C162.999 89.7774 163.572 89.5873 164.045 89.1917C164.517 88.7976 164.827 88.2135 164.976 87.4409Z" fill="#304655"/>
<path d="M175.263 88.9859L178.14 84.5747H179.634L174.836 91.4594C174.17 92.4143 173.312 92.8862 172.266 92.8738C172.078 92.8691 171.805 92.8364 171.446 92.7741L171.566 91.9579L171.916 91.9828C172.347 91.9984 172.718 91.9298 173.026 91.7772C173.338 91.623 173.615 91.3722 173.854 91.0233L174.341 90.3504L172.94 84.5747H174.358L175.263 88.9859Z" fill="#304655"/>
<path d="M184.56 84.4686C185.236 84.4732 185.817 84.6056 186.302 84.8673C186.784 85.129 187.14 85.4904 187.369 85.9514C187.601 86.4125 187.68 86.9156 187.608 87.4592L187.591 87.5776C187.499 88.1555 187.266 88.6773 186.891 89.1415C186.515 89.6025 186.03 89.9623 185.439 90.2193C184.846 90.4764 184.197 90.5994 183.492 90.5869C182.82 90.5776 182.239 90.4436 181.751 90.182C181.266 89.9203 180.91 89.5651 180.683 89.1165C180.461 88.6648 180.385 88.1664 180.453 87.6212C180.525 87.0106 180.752 86.4623 181.127 85.9764C181.507 85.4904 181.994 85.115 182.587 84.8486C183.185 84.5792 183.843 84.453 184.56 84.4686ZM181.81 87.6274C181.776 87.8564 181.776 88.0947 181.81 88.344C181.862 88.7723 182.037 89.115 182.34 89.372C182.641 89.6259 183.042 89.7567 183.544 89.7645C183.992 89.777 184.406 89.6991 184.782 89.5278C185.162 89.3533 185.482 89.0916 185.738 88.7427C185.998 88.3938 186.167 88.006 186.242 87.5776C186.28 87.2458 186.289 86.9655 186.267 86.7365C186.203 86.2972 186.02 85.9499 185.712 85.696C185.409 85.439 185.008 85.3035 184.508 85.291C183.808 85.2785 183.213 85.4779 182.724 85.8891C182.239 86.3003 181.941 86.8393 181.827 87.5028L181.81 87.6274Z" fill="#304655"/>
<path d="M194.35 89.8893C193.718 90.3675 192.916 90.5996 191.942 90.5872C191.167 90.57 190.595 90.3691 190.226 89.9828C189.855 89.5934 189.716 89.0607 189.808 88.3878L190.679 84.5747H192.028L191.157 88.4003C191.127 88.5622 191.123 88.7211 191.14 88.8738C191.161 89.1355 191.268 89.3411 191.456 89.4906C191.648 89.637 191.912 89.7149 192.25 89.7274C193.217 89.7492 193.966 89.4641 194.495 88.8738L195.511 84.5747H196.86L195.46 90.475H194.179L194.35 89.8893Z" fill="#304655"/>
<path d="M206.015 83.1479L205.674 84.5747H207.151L206.963 85.3536H205.495L204.649 89.0233C204.637 89.1199 204.634 89.2071 204.641 89.285C204.679 89.5685 204.893 89.7087 205.281 89.7087C205.446 89.7087 205.665 89.6931 205.939 89.6589L205.836 90.4813C205.512 90.5467 205.181 90.581 204.846 90.581C204.31 90.5716 203.907 90.4283 203.633 90.1448C203.364 89.8629 203.262 89.4844 203.326 89.0109L204.146 85.3536H202.72L202.908 84.5747H204.333L204.675 83.1479H206.015Z" fill="#304655"/>
<path d="M212.473 84.4686C213.149 84.4732 213.73 84.6056 214.215 84.8673C214.697 85.129 215.053 85.4904 215.282 85.9514C215.515 86.4125 215.594 86.9156 215.521 87.4592L215.504 87.5776C215.412 88.1555 215.179 88.6773 214.804 89.1415C214.428 89.6025 213.944 89.9623 213.352 90.2193C212.759 90.4764 212.11 90.5994 211.406 90.5869C210.733 90.5776 210.153 90.4436 209.664 90.182C209.179 89.9203 208.823 89.5651 208.596 89.1165C208.374 88.6648 208.298 88.1664 208.366 87.6212C208.438 87.0106 208.665 86.4623 209.04 85.9764C209.42 85.4904 209.907 85.115 210.5 84.8486C211.098 84.5792 211.756 84.453 212.473 84.4686ZM209.723 87.6274C209.689 87.8564 209.689 88.0947 209.723 88.344C209.775 88.7723 209.95 89.115 210.253 89.372C210.554 89.6259 210.955 89.7567 211.457 89.7645C211.905 89.777 212.319 89.6991 212.695 89.5278C213.075 89.3533 213.395 89.0916 213.651 88.7427C213.911 88.3938 214.08 88.006 214.155 87.5776C214.193 87.2458 214.202 86.9655 214.18 86.7365C214.116 86.2972 213.933 85.9499 213.625 85.696C213.322 85.439 212.921 85.3035 212.422 85.291C211.721 85.2785 211.126 85.4779 210.637 85.8891C210.153 86.3003 209.854 86.8393 209.741 87.5028L209.723 87.6274Z" fill="#304655"/>
<path d="M221.895 87.5153C222.014 86.872 222.249 86.3129 222.603 85.8393C222.962 85.3658 223.393 85.0153 223.901 84.7864C224.413 84.559 224.973 84.4499 225.583 84.4624C226.516 84.4748 227.222 84.7334 227.701 85.235L227.974 84.5745H229.212L227.871 90.3502C227.722 91.101 227.301 91.7038 226.608 92.1571C225.918 92.6088 225.064 92.8253 224.046 92.8051C223.5 92.7957 222.975 92.7007 222.475 92.5185C221.974 92.3347 221.581 92.0854 221.297 91.7708L222.065 91.1664C222.548 91.6929 223.192 91.9655 223.995 91.9826C224.637 91.9951 225.182 91.8611 225.626 91.5839C226.074 91.3097 226.371 90.9172 226.514 90.4063L226.667 89.8829C226.006 90.3658 225.235 90.5995 224.354 90.587C223.852 90.5745 223.416 90.4748 223.047 90.2879C222.676 90.101 222.39 89.8315 222.185 89.478C221.98 89.1213 221.865 88.7241 221.843 88.2879C221.837 88.073 221.854 87.8144 221.895 87.5153ZM223.201 88.0761C223.184 88.5963 223.305 88.9982 223.568 89.2848C223.828 89.5683 224.225 89.7178 224.755 89.7334C225.557 89.7459 226.251 89.4577 226.838 88.8674L227.47 86.1571C227.173 85.6181 226.633 85.3378 225.848 85.316C225.118 85.3035 224.518 85.5247 224.046 85.9764C223.572 86.425 223.295 87.0325 223.209 87.7957L223.201 88.0761Z" fill="#304655"/>
<path d="M235.539 85.478L234.907 85.4282C234.036 85.4282 233.353 85.7132 232.858 86.2818L231.867 90.4749H230.51L231.919 84.5746L233.225 84.5684L233.02 85.2599C233.594 84.7085 234.269 84.4406 235.044 84.4562C235.208 84.4562 235.424 84.4842 235.692 84.5372L235.539 85.478Z" fill="#304655"/>
<path d="M240.707 84.4686C241.384 84.4732 241.964 84.6056 242.449 84.8673C242.931 85.129 243.288 85.4904 243.516 85.9514C243.749 86.4125 243.828 86.9156 243.755 87.4592L243.738 87.5776C243.646 88.1555 243.414 88.6773 243.038 89.1415C242.662 89.6025 242.178 89.9623 241.587 90.2193C240.993 90.4764 240.344 90.5994 239.64 90.5869C238.968 90.5776 238.387 90.4436 237.898 90.182C237.414 89.9203 237.057 89.5651 236.831 89.1165C236.609 88.6648 236.532 88.1664 236.6 87.6212C236.673 87.0106 236.899 86.4623 237.275 85.9764C237.655 85.4904 238.141 85.115 238.735 84.8486C239.333 84.5792 239.99 84.453 240.707 84.4686ZM237.958 87.6274C237.924 87.8564 237.924 88.0947 237.958 88.344C238.009 88.7723 238.184 89.115 238.487 89.372C238.788 89.6259 239.19 89.7567 239.691 89.7645C240.139 89.777 240.553 89.6991 240.929 89.5278C241.309 89.3533 241.629 89.0916 241.885 88.7427C242.146 88.3938 242.315 88.006 242.389 87.5776C242.428 87.2458 242.436 86.9655 242.415 86.7365C242.351 86.2972 242.167 85.9499 241.86 85.696C241.557 85.439 241.155 85.3035 240.656 85.291C239.956 85.2785 239.36 85.4779 238.871 85.8891C238.387 86.3003 238.088 86.8393 237.975 87.5028L237.958 87.6274Z" fill="#304655"/>
<path d="M252.624 89.0794L255.202 84.5747H256.594L252.914 90.475H251.812L250.976 86.014L248.064 90.475H246.963L246.092 84.5747H247.381L247.876 88.9672L250.745 84.5747H251.838L252.624 89.0794Z" fill="#304655"/>
<path d="M56.968 106.631L59.8454 102.22H61.3396L56.5411 109.104C55.8751 110.059 55.017 110.531 53.971 110.519C53.7832 110.514 53.51 110.481 53.1514 110.419L53.2709 109.603L53.621 109.628C54.0522 109.643 54.4236 109.575 54.7309 109.422C55.0426 109.268 55.3201 109.017 55.5592 108.668L56.0458 107.995L54.6456 102.22H56.0629L56.968 106.631Z" fill="#304655"/>
<path d="M66.2638 102.114C66.9405 102.118 67.5211 102.251 68.0056 102.512C68.488 102.774 68.8445 103.135 69.0729 103.596C69.3056 104.058 69.3846 104.561 69.312 105.104L69.2949 105.223C69.2031 105.801 68.9704 106.322 68.5948 106.786C68.2191 107.248 67.7345 107.607 67.1433 107.864C66.5499 108.121 65.9009 108.244 65.1965 108.232C64.5242 108.223 63.9435 108.089 63.4547 107.827C62.9702 107.565 62.6137 107.21 62.3875 106.762C62.1655 106.31 62.0886 105.811 62.1569 105.266C62.2295 104.656 62.4558 104.107 62.8314 103.621C63.2114 103.135 63.6981 102.76 64.2915 102.494C64.8892 102.224 65.5466 102.098 66.2638 102.114ZM63.5145 105.272C63.4803 105.501 63.4803 105.74 63.5145 105.989C63.5657 106.417 63.7408 106.76 64.0439 107.017C64.3448 107.271 64.7461 107.402 65.2478 107.41C65.696 107.422 66.1101 107.344 66.4858 107.173C66.8658 106.998 67.186 106.737 67.4421 106.388C67.7025 106.039 67.8711 105.651 67.9459 105.223C67.9843 104.891 67.9928 104.61 67.9715 104.382C67.9074 103.942 67.7239 103.595 67.4165 103.341C67.1134 103.084 66.7121 102.948 66.2126 102.936C65.5125 102.924 64.9169 103.123 64.4281 103.534C63.9435 103.945 63.6447 104.484 63.5316 105.148L63.5145 105.272Z" fill="#304655"/>
<path d="M76.0551 107.534C75.4233 108.013 74.6207 108.245 73.6473 108.232C72.8725 108.215 72.3004 108.014 71.9311 107.628C71.5597 107.238 71.421 106.706 71.5127 106.033L72.3836 102.22H73.7327L72.8618 106.045C72.8319 106.207 72.8276 106.366 72.8447 106.519C72.8661 106.78 72.9728 106.986 73.1606 107.136C73.3527 107.282 73.6174 107.36 73.9547 107.372C74.9216 107.394 75.6709 107.109 76.2002 106.519L77.2163 102.22H78.5653L77.1651 108.12H75.8843L76.0551 107.534Z" fill="#304655"/>
<path d="M84.8191 103.123L84.1872 103.073C83.3163 103.073 82.6333 103.358 82.1381 103.927L81.1476 108.12H79.79L81.1989 102.22L82.5052 102.213L82.3003 102.905C82.8745 102.354 83.549 102.086 84.3239 102.101C84.4882 102.101 84.7038 102.129 84.9728 102.182L84.8191 103.123Z" fill="#304655"/>
<path d="M93.2733 107.41C93.7557 107.419 94.1911 107.316 94.5796 107.104C94.966 106.893 95.22 106.612 95.3395 106.263H96.6203C96.5456 106.634 96.3428 106.972 96.0141 107.279C95.6832 107.583 95.2648 107.819 94.7589 107.989C94.2573 108.159 93.7429 108.24 93.2135 108.232C92.5411 108.223 91.9712 108.095 91.5059 107.846C91.0384 107.597 90.6947 107.251 90.4727 106.805C90.255 106.357 90.1846 105.857 90.2593 105.304L90.2934 105.03C90.3895 104.461 90.6179 103.955 90.9765 103.509C91.3351 103.061 91.8004 102.712 92.3768 102.463C92.9574 102.213 93.5935 102.098 94.2893 102.114C95.1367 102.126 95.8134 102.335 96.3214 102.737C96.8273 103.136 97.0813 103.643 97.0813 104.257L95.8177 104.251C95.8113 103.864 95.6661 103.553 95.3822 103.316C95.0962 103.076 94.712 102.949 94.2296 102.936C93.5294 102.924 92.9446 103.115 92.4792 103.509C92.0117 103.9 91.7214 104.449 91.6083 105.154L91.5827 105.297C91.5528 105.531 91.5507 105.769 91.5742 106.014C91.6083 106.442 91.7705 106.78 92.0608 107.03C92.3554 107.276 92.761 107.402 93.2733 107.41Z" fill="#304655"/>
<path d="M103.257 108.12C103.223 108.017 103.206 107.913 103.206 107.808L103.231 107.497C102.49 108 101.703 108.245 100.866 108.232C100.153 108.223 99.5768 108.061 99.1328 107.74C98.6888 107.416 98.486 107.011 98.5266 106.525C98.5714 105.902 98.9449 105.416 99.6451 105.067C100.345 104.715 101.267 104.537 102.411 104.537L103.82 104.544L103.914 104.076C103.959 103.724 103.863 103.446 103.624 103.241C103.389 103.034 103.037 102.927 102.565 102.917C102.104 102.91 101.694 102.992 101.336 103.167C100.981 103.341 100.766 103.57 100.687 103.852L99.3206 103.858C99.3654 103.514 99.5511 103.209 99.8756 102.942C100.2 102.673 100.614 102.466 101.122 102.319C101.628 102.17 102.155 102.1 102.702 102.108C103.543 102.12 104.198 102.307 104.666 102.668C105.131 103.027 105.327 103.5 105.255 104.089L104.597 107.011L104.563 107.435C104.55 107.634 104.58 107.832 104.648 108.027L104.631 108.12H103.257ZM101.139 107.354C101.57 107.363 101.98 107.288 102.369 107.129C102.755 106.972 103.088 106.754 103.368 106.475L103.658 105.26L102.633 105.254C101.78 105.254 101.124 105.352 100.67 105.547C100.219 105.743 99.9653 106.02 99.9098 106.382C99.8628 106.656 99.9524 106.886 100.174 107.073C100.396 107.257 100.717 107.351 101.139 107.354Z" fill="#304655"/>
<path d="M112.104 103.123L111.472 103.073C110.601 103.073 109.918 103.358 109.423 103.927L108.433 108.12H107.075L108.484 102.22L109.79 102.213L109.585 102.905C110.16 102.354 110.834 102.086 111.609 102.101C111.773 102.101 111.989 102.129 112.258 102.182L112.104 103.123Z" fill="#304655"/>
<path d="M116.282 108.232C115.275 108.215 114.485 107.944 113.917 107.416C113.347 106.889 113.108 106.213 113.2 105.391L113.242 105.16C113.321 104.575 113.558 104.042 113.951 103.559C114.344 103.073 114.822 102.709 115.386 102.463C115.949 102.218 116.555 102.101 117.204 102.114C118.035 102.126 118.686 102.329 119.159 102.718C119.638 103.104 119.896 103.632 119.936 104.301C119.954 104.534 119.945 104.768 119.911 105.005L119.825 105.459H114.549C114.457 105.995 114.577 106.45 114.907 106.824C115.236 107.198 115.731 107.391 116.393 107.403C117.189 107.421 117.926 107.159 118.604 106.618L119.381 107.098C119.04 107.456 118.6 107.737 118.067 107.939C117.531 108.139 116.935 108.235 116.282 108.232ZM117.136 102.936C116.577 102.924 116.09 103.061 115.676 103.347C115.26 103.634 114.929 104.062 114.685 104.631L118.622 104.637L118.647 104.55C118.726 104.093 118.624 103.713 118.34 103.41C118.06 103.103 117.659 102.945 117.136 102.936Z" fill="#304655"/>
<path d="M124.828 108.232C123.82 108.215 123.031 107.944 122.463 107.416C121.893 106.889 121.654 106.213 121.746 105.391L121.788 105.16C121.867 104.575 122.104 104.042 122.497 103.559C122.89 103.073 123.368 102.709 123.931 102.463C124.495 102.218 125.101 102.101 125.75 102.114C126.58 102.126 127.231 102.329 127.705 102.718C128.184 103.104 128.442 103.632 128.482 104.301C128.499 104.534 128.491 104.768 128.457 105.005L128.371 105.459H123.095C123.003 105.995 123.122 106.45 123.453 106.824C123.782 107.198 124.277 107.391 124.939 107.403C125.735 107.421 126.472 107.159 127.15 106.618L127.927 107.098C127.586 107.456 127.146 107.737 126.612 107.939C126.077 108.139 125.481 108.235 124.828 108.232ZM125.682 102.936C125.123 102.924 124.636 103.061 124.222 103.347C123.806 103.634 123.475 104.062 123.231 104.631L127.167 104.637L127.193 104.55C127.272 104.093 127.17 103.713 126.886 103.41C126.606 103.103 126.205 102.945 125.682 102.936Z" fill="#304655"/>
<path d="M134.901 103.123L134.269 103.073C133.398 103.073 132.715 103.358 132.22 103.927L131.23 108.12H129.872L131.281 102.22L132.587 102.213L132.382 102.905C132.957 102.354 133.631 102.086 134.406 102.101C134.57 102.101 134.786 102.129 135.055 102.182L134.901 103.123Z" fill="#304655"/>
<path d="M143.441 108.232C142.434 108.215 141.644 107.944 141.076 107.416C140.506 106.889 140.267 106.213 140.359 105.391L140.402 105.16C140.481 104.575 140.718 104.042 141.11 103.559C141.503 103.073 141.981 102.709 142.545 102.463C143.108 102.218 143.714 102.101 144.363 102.114C145.194 102.126 145.845 102.329 146.319 102.718C146.797 103.104 147.055 103.632 147.096 104.301C147.113 104.534 147.104 104.768 147.07 105.005L146.985 105.459H141.708C141.616 105.995 141.736 106.45 142.067 106.824C142.395 107.198 142.891 107.391 143.552 107.403C144.348 107.421 145.085 107.159 145.764 106.618L146.541 107.098C146.199 107.456 145.759 107.737 145.226 107.939C144.69 108.139 144.094 108.235 143.441 108.232ZM144.295 102.936C143.736 102.924 143.249 103.061 142.835 103.347C142.419 103.634 142.088 104.062 141.845 104.631L145.781 104.637L145.806 104.55C145.885 104.093 145.783 103.713 145.499 103.41C145.219 103.103 144.818 102.945 144.295 102.936Z" fill="#304655"/>
<path d="M151.961 104.369L154.155 102.22H155.82L152.576 105.185L154.548 108.12H153.071L151.739 105.914L149.459 108.12H147.803L151.15 105.086L149.237 102.22H150.714L151.961 104.369Z" fill="#304655"/>
<path d="M163.856 105.198C163.753 105.796 163.527 106.336 163.181 106.818C162.84 107.296 162.415 107.656 161.909 107.895C161.401 108.132 160.838 108.244 160.219 108.232C159.284 108.219 158.566 107.989 158.067 107.54L157.35 110.388H155.992L157.939 102.219L159.16 102.213L159.015 102.874C159.681 102.35 160.479 102.098 161.414 102.113C162.187 102.126 162.791 102.335 163.224 102.737C163.655 103.14 163.886 103.696 163.916 104.406C163.92 104.64 163.907 104.866 163.873 105.085L163.856 105.198ZM162.524 105.085L162.558 104.624C162.558 104.093 162.417 103.688 162.14 103.409C161.867 103.127 161.467 102.978 160.944 102.961C160.163 102.948 159.489 103.221 158.921 103.777L158.246 106.606C158.547 107.129 159.092 107.397 159.877 107.409C160.547 107.422 161.119 107.232 161.593 106.836C162.065 106.442 162.375 105.858 162.524 105.085Z" fill="#304655"/>
<path d="M170.037 102.114C170.714 102.118 171.295 102.251 171.779 102.512C172.261 102.774 172.618 103.135 172.846 103.596C173.079 104.058 173.158 104.561 173.085 105.104L173.068 105.223C172.977 105.801 172.744 106.322 172.368 106.786C171.993 107.248 171.508 107.607 170.917 107.864C170.323 108.121 169.674 108.244 168.97 108.232C168.298 108.223 167.717 108.089 167.228 107.827C166.744 107.565 166.387 107.21 166.161 106.762C165.939 106.31 165.862 105.811 165.93 105.266C166.003 104.656 166.229 104.107 166.605 103.621C166.985 103.135 167.472 102.76 168.065 102.494C168.663 102.224 169.32 102.098 170.037 102.114ZM167.288 105.272C167.254 105.501 167.254 105.74 167.288 105.989C167.339 106.417 167.514 106.76 167.817 107.017C168.118 107.271 168.52 107.402 169.021 107.41C169.469 107.422 169.884 107.344 170.259 107.173C170.639 106.998 170.959 106.737 171.216 106.388C171.476 106.039 171.645 105.651 171.719 105.223C171.758 104.891 171.766 104.61 171.745 104.382C171.681 103.942 171.497 103.595 171.19 103.341C170.887 103.084 170.486 102.948 169.986 102.936C169.286 102.924 168.69 103.123 168.202 103.534C167.717 103.945 167.418 104.484 167.305 105.148L167.288 105.272Z" fill="#304655"/>
<path d="M177.377 102.213L177.189 102.961C177.911 102.38 178.737 102.098 179.666 102.113C180.428 102.126 180.991 102.319 181.356 102.693C181.719 103.064 181.853 103.584 181.757 104.257L180.878 108.12H179.52L180.417 104.238C180.445 104.06 180.445 103.894 180.417 103.74C180.336 103.233 179.926 102.973 179.187 102.961C178.372 102.953 177.661 103.269 177.053 103.908L176.054 108.12H174.696L176.105 102.219L177.377 102.213Z" fill="#304655"/>
<path d="M187.07 108.232C186.063 108.215 185.273 107.944 184.705 107.416C184.135 106.889 183.896 106.213 183.988 105.391L184.031 105.16C184.11 104.575 184.346 104.042 184.739 103.559C185.132 103.073 185.61 102.709 186.174 102.463C186.737 102.218 187.343 102.101 187.992 102.114C188.823 102.126 189.474 102.329 189.948 102.718C190.426 103.104 190.684 103.632 190.725 104.301C190.742 104.534 190.733 104.768 190.699 105.005L190.614 105.459H185.337C185.245 105.995 185.365 106.45 185.695 106.824C186.024 107.198 186.519 107.391 187.181 107.403C187.977 107.421 188.714 107.159 189.393 106.618L190.17 107.098C189.828 107.456 189.388 107.737 188.855 107.939C188.319 108.139 187.723 108.235 187.07 108.232ZM187.924 102.936C187.365 102.924 186.878 103.061 186.464 103.347C186.048 103.634 185.717 104.062 185.474 104.631L189.41 104.637L189.435 104.55C189.514 104.093 189.412 103.713 189.128 103.41C188.848 103.103 188.447 102.945 187.924 102.936Z" fill="#304655"/>
<path d="M194.796 102.213L194.608 102.961C195.33 102.38 196.156 102.098 197.084 102.113C197.847 102.126 198.41 102.319 198.775 102.693C199.138 103.064 199.272 103.584 199.176 104.257L198.297 108.12H196.939L197.836 104.238C197.864 104.06 197.864 103.894 197.836 103.74C197.755 103.233 197.345 102.973 196.606 102.961C195.791 102.953 195.08 103.269 194.472 103.908L193.473 108.12H192.115L193.524 102.219L194.796 102.213Z" fill="#304655"/>
<path d="M204.557 100.793L204.216 102.22H205.693L205.505 102.999H204.037L203.191 106.668C203.179 106.765 203.176 106.852 203.183 106.93C203.221 107.214 203.435 107.354 203.823 107.354C203.988 107.354 204.207 107.338 204.481 107.304L204.378 108.126C204.054 108.192 203.723 108.226 203.388 108.226C202.852 108.217 202.449 108.073 202.175 107.79C201.906 107.508 201.804 107.129 201.868 106.656L202.688 102.999H201.262L201.45 102.22H202.875L203.217 100.793H204.557Z" fill="#304655"/>
<path d="M207.992 108.12H206.643L208.051 102.22H209.392L207.992 108.12ZM209.102 100.07C209.328 100.062 209.52 100.112 209.674 100.22C209.827 100.324 209.904 100.463 209.904 100.637C209.898 100.812 209.821 100.953 209.674 101.061C209.524 101.17 209.334 101.227 209.102 101.235C208.867 101.245 208.675 101.196 208.521 101.092C208.372 100.984 208.301 100.846 208.308 100.674C208.312 100.505 208.387 100.363 208.53 100.251C208.677 100.136 208.867 100.075 209.102 100.07Z" fill="#304655"/>
<path d="M215.754 108.12C215.72 108.017 215.703 107.913 215.703 107.808L215.728 107.497C214.988 108 214.2 108.245 213.363 108.232C212.65 108.223 212.074 108.061 211.63 107.74C211.186 107.416 210.983 107.011 211.024 106.525C211.068 105.902 211.442 105.416 212.142 105.067C212.842 104.715 213.764 104.537 214.909 104.537L216.317 104.544L216.411 104.076C216.456 103.724 216.36 103.446 216.121 103.241C215.886 103.034 215.534 102.927 215.062 102.917C214.601 102.91 214.191 102.992 213.833 103.167C213.478 103.341 213.263 103.57 213.184 103.852L211.818 103.858C211.863 103.514 212.048 103.209 212.373 102.942C212.697 102.673 213.111 102.466 213.619 102.319C214.125 102.17 214.652 102.1 215.199 102.108C216.04 102.12 216.695 102.307 217.163 102.668C217.628 103.027 217.824 103.5 217.752 104.089L217.094 107.011L217.06 107.435C217.047 107.634 217.077 107.832 217.146 108.027L217.128 108.12H215.754ZM213.636 107.354C214.068 107.363 214.477 107.288 214.866 107.129C215.252 106.972 215.585 106.754 215.865 106.475L216.155 105.26L215.131 105.254C214.277 105.254 213.621 105.352 213.167 105.547C212.716 105.743 212.462 106.02 212.407 106.382C212.36 106.656 212.45 106.886 212.672 107.073C212.894 107.257 213.214 107.351 213.636 107.354Z" fill="#304655"/>
<path d="M221.04 108.12H219.691L221.681 99.7461H223.03L221.04 108.12Z" fill="#304655"/>
<path d="M225.329 108.12H223.979L225.969 99.7461H227.318L225.329 108.12Z" fill="#304655"/>
<path d="M231.05 106.631L233.927 102.22H235.422L230.623 109.104C229.957 110.059 229.099 110.531 228.053 110.519C227.865 110.514 227.592 110.481 227.233 110.419L227.353 109.603L227.703 109.628C228.134 109.643 228.506 109.575 228.813 109.422C229.125 109.268 229.402 109.017 229.641 108.668L230.128 107.995L228.728 102.22H230.145L231.05 106.631Z" fill="#304655"/>
<path d="M236.854 106.973C237.093 106.97 237.292 107.026 237.452 107.141C237.61 107.254 237.687 107.4 237.683 107.578C237.683 107.752 237.601 107.895 237.443 108.008C237.283 108.12 237.085 108.177 236.846 108.182C236.607 108.19 236.406 108.141 236.248 108.039C236.094 107.931 236.018 107.788 236.018 107.609C236.018 107.431 236.094 107.283 236.248 107.166C236.406 107.046 236.609 106.983 236.854 106.973Z" fill="#304655"/>
</svg>
